<svg width="134" height="22" viewBox="0 0 134 22" fill="none" xmlns="http://www.w3.org/2000/svg">
<path d="M17.0185 12.0324L12.3793 19.9779L7.74004 12.0324H17.0185ZM18.2614 11.3223H6.49219L12.3793 21.3833L18.2614 11.3223Z" fill="white"/>
<path d="M25.0844 2.14975L29.7236 10.0953H20.4451L25.0844 2.14975ZM25.0844 0.729492L19.1973 10.7905H30.9715L25.0844 0.729492Z" fill="white"/>
<path d="M0.851562 0.729492L5.78769 9.62848L11.1817 0.952948L0.851562 0.729492Z" fill="#4CAF4F"/>
<path d="M12.3791 1.50903L17.5568 10.3584H7.19141L12.3791 1.50903Z" fill="#4CAF4F"/>
<path d="M18.8902 12.2905L24.0728 21.3832H13.4609L18.7291 12.2905H18.8902Z" fill="#4CAF4F"/>
<path d="M20.0122 11.7393L25.0842 20.6929L30.2266 11.7393H20.0122Z" fill="#4CAF4F"/>
<path d="M52.5137 2.16602V19.6903H49.3135L41.6894 8.6606H41.561V19.6903H37.856V2.16602H41.1075L48.6717 13.1871H48.8257V2.16602H52.5137Z" fill="white"/>
<path d="M61.4962 19.947C60.1442 19.947 58.9805 19.6732 58.005 19.1255C57.0352 18.5722 56.288 17.7907 55.7631 16.781C55.2383 15.7656 54.9759 14.5648 54.9759 13.1786C54.9759 11.8266 55.2383 10.6401 55.7631 9.61896C56.288 8.59785 57.0267 7.80207 57.9793 7.23162C58.9377 6.66117 60.0615 6.37595 61.3507 6.37595C62.2178 6.37595 63.025 6.51571 63.7723 6.79523C64.5253 7.06904 65.1813 7.48262 65.7403 8.03596C66.3051 8.5893 66.7443 9.28525 67.0581 10.1238C67.3718 10.9567 67.5287 11.9321 67.5287 13.0502V14.0514H56.4306V11.7924H64.0974C64.0974 11.2676 63.9833 10.8026 63.7552 10.3976C63.527 9.99261 63.2104 9.67601 62.8054 9.44783C62.406 9.21394 61.9411 9.097 61.4106 9.097C60.8573 9.097 60.3667 9.22535 59.9388 9.48205C59.5167 9.73305 59.1858 10.0725 58.9463 10.5003C58.7067 10.9224 58.584 11.3931 58.5783 11.9122V14.0599C58.5783 14.7102 58.6981 15.2721 58.9377 15.7456C59.183 16.2191 59.5281 16.5842 59.9731 16.8409C60.418 17.0976 60.9457 17.2259 61.5561 17.2259C61.9611 17.2259 62.3319 17.1689 62.6684 17.0548C63.005 16.9407 63.2931 16.7696 63.5327 16.5414C63.7723 16.3132 63.9548 16.0337 64.0803 15.7028L67.4517 15.9253C67.2805 16.7353 66.9297 17.4427 66.3992 18.0474C65.8744 18.6464 65.1955 19.1141 64.3627 19.4507C63.5355 19.7816 62.58 19.947 61.4962 19.947Z" fill="white"/>
<path d="M72.7184 6.54708L75.1314 11.1421L77.6043 6.54708H81.3436L77.5358 13.1187L81.4463 19.6903H77.7241L75.1314 15.1466L72.5815 19.6903H68.8165L72.7184 13.1187L68.9534 6.54708H72.7184Z" fill="white"/>
<path d="M88.9762 19.947C87.63 19.947 86.472 19.6618 85.5022 19.0913C84.5381 18.5151 83.7965 17.7165 83.2774 16.6954C82.764 15.6743 82.5073 14.4992 82.5073 13.17C82.5073 11.8238 82.7669 10.6429 83.286 9.62752C83.8108 8.60641 84.5552 7.81063 85.5193 7.24018C86.4834 6.66402 87.63 6.37595 88.9591 6.37595C90.1057 6.37595 91.1097 6.58416 91.9711 7.00059C92.8325 7.41702 93.5142 8.00173 94.0162 8.75473C94.5182 9.50772 94.7948 10.3919 94.8462 11.4073H91.4064C91.3094 10.7513 91.0527 10.2236 90.6362 9.82432C90.2255 9.4193 89.6864 9.21679 89.019 9.21679C88.4543 9.21679 87.9608 9.37081 87.5387 9.67886C87.1223 9.9812 86.7971 10.4233 86.5632 11.0052C86.3293 11.587 86.2124 12.2915 86.2124 13.1187C86.2124 13.9572 86.3265 14.6703 86.5547 15.2579C86.7886 15.8454 87.1166 16.2932 87.5387 16.6013C87.9608 16.9093 88.4543 17.0634 89.019 17.0634C89.4354 17.0634 89.8091 16.9778 90.14 16.8066C90.4765 16.6355 90.7532 16.3874 90.97 16.0622C91.1924 15.7313 91.3379 15.3349 91.4064 14.8728H94.8462C94.7891 15.8768 94.5153 16.761 94.0247 17.5254C93.5398 18.2841 92.8696 18.8774 92.0139 19.3052C91.1582 19.7331 90.1457 19.947 88.9762 19.947Z" fill="white"/>
<path d="M103.17 19.947C101.818 19.947 100.654 19.6732 99.6786 19.1255C98.7088 18.5722 97.9616 17.7907 97.4367 16.781C96.9119 15.7656 96.6495 14.5648 96.6495 13.1786C96.6495 11.8266 96.9119 10.6401 97.4367 9.61896C97.9616 8.59785 98.7003 7.80207 99.6529 7.23162C100.611 6.66117 101.735 6.37595 103.024 6.37595C103.891 6.37595 104.699 6.51571 105.446 6.79523C106.199 7.06904 106.855 7.48262 107.414 8.03596C107.979 8.5893 108.418 9.28525 108.732 10.1238C109.045 10.9567 109.202 11.9321 109.202 13.0502V14.0514H98.1042V11.7924H105.771C105.771 11.2676 105.657 10.8026 105.429 10.3976C105.201 9.99261 104.884 9.67601 104.479 9.44783C104.08 9.21394 103.615 9.097 103.084 9.097C102.531 9.097 102.04 9.22535 101.612 9.48205C101.19 9.73305 100.859 10.0725 100.62 10.5003C100.38 10.9224 100.258 11.3931 100.252 11.9122V14.0599C100.252 14.7102 100.372 15.2721 100.611 15.7456C100.857 16.2191 101.202 16.5842 101.647 16.8409C102.092 17.0976 102.619 17.2259 103.23 17.2259C103.635 17.2259 104.005 17.1689 104.342 17.0548C104.679 16.9407 104.967 16.7696 105.206 16.5414C105.446 16.3132 105.628 16.0337 105.754 15.7028L109.125 15.9253C108.954 16.7353 108.603 17.4427 108.073 18.0474C107.548 18.6464 106.869 19.1141 106.036 19.4507C105.209 19.7816 104.254 19.947 103.17 19.947Z" fill="white"/>
<path d="M115.226 12.0919V19.6903H111.581V6.54708H115.055V8.86597H115.209C115.5 8.10156 115.988 7.49688 116.672 7.05193C117.357 6.60127 118.187 6.37595 119.162 6.37595C120.075 6.37595 120.871 6.5756 121.55 6.97492C122.229 7.37424 122.756 7.94469 123.133 8.68627C123.509 9.42216 123.697 10.3007 123.697 11.3218V19.6903H120.052V11.9721C120.058 11.1677 119.853 10.5402 119.436 10.0896C119.02 9.63322 118.446 9.40504 117.716 9.40504C117.226 9.40504 116.792 9.51058 116.416 9.72164C116.045 9.93271 115.754 10.2408 115.543 10.6458C115.338 11.0451 115.232 11.5271 115.226 12.0919Z" fill="white"/>
<path d="M133.561 6.54708V9.28525H125.646V6.54708H133.561ZM127.443 3.39819H131.088V15.6515C131.088 15.9881 131.14 16.2505 131.242 16.4387C131.345 16.6213 131.488 16.7496 131.67 16.8238C131.858 16.8979 132.075 16.935 132.321 16.935C132.492 16.935 132.663 16.9207 132.834 16.8922C133.005 16.858 133.136 16.8323 133.228 16.8152L133.801 19.5277C133.618 19.5847 133.362 19.6503 133.031 19.7245C132.7 19.8044 132.298 19.8529 131.824 19.87C130.946 19.9042 130.176 19.7873 129.514 19.5191C128.858 19.251 128.347 18.8346 127.982 18.2699C127.617 17.7051 127.437 16.992 127.443 16.1307V3.39819Z" fill="white"/>
</svg>
