<svg width="12" height="13" viewBox="0 0 12 13" fill="none" xmlns="http://www.w3.org/2000/svg">
<path fill-rule="evenodd" clip-rule="evenodd" d="M11.4609 0.76669C11.6027 0.908499 11.6508 1.11901 11.5845 1.3083L7.93014 11.7493C7.85943 11.9514 7.67255 12.0898 7.45867 12.0985C7.2448 12.1072 7.04727 11.9845 6.96034 11.7889L4.95368 7.27392L0.438691 5.26726C0.243089 5.18032 0.120373 4.98279 0.129099 4.76892C0.137824 4.55505 0.276222 4.36817 0.478257 4.29746L10.9193 0.643093C11.1086 0.576842 11.3191 0.62488 11.4609 0.76669ZM5.97186 6.99403L7.37965 10.1616L9.84329 3.1226L5.97186 6.99403ZM9.10499 2.38431L2.06604 4.84794L5.23357 6.25573L9.10499 2.38431Z" fill="white"/>
</svg>
