<svg width="34" height="34" viewBox="0 0 34 34" fill="none" xmlns="http://www.w3.org/2000/svg">
<path d="M4.133 11.6343V11.9823H4.48103H29.5395H29.8876V11.6343V10.0681C29.8876 9.28351 29.5759 8.53106 29.0211 7.97627C28.4663 7.42148 27.7139 7.1098 26.9293 7.1098H7.09129C6.3067 7.1098 5.55425 7.42148 4.99946 7.97627C4.44467 8.53106 4.133 9.28351 4.133 10.0681V11.6343ZM29.8876 13.7225V13.3744H29.5395H4.48103H4.133V13.7225V23.6415C4.133 24.426 4.44467 25.1785 4.99946 25.7333C5.55425 26.2881 6.3067 26.5997 7.09129 26.5997H26.9293C27.7139 26.5997 28.4663 26.2881 29.0211 25.7333C29.5759 25.1785 29.8876 24.426 29.8876 23.6415V13.7225ZM2.74086 10.0681C2.74086 8.91429 3.1992 7.80774 4.01507 6.99188C4.83093 6.17601 5.93748 5.71766 7.09129 5.71766H26.9293C28.0831 5.71766 29.1896 6.17601 30.0055 6.99188C30.8214 7.80774 31.2797 8.91429 31.2797 10.0681V23.6415C31.2797 24.7953 30.8214 25.9018 30.0055 26.7177C29.1896 27.5335 28.0831 27.9919 26.9293 27.9919H7.09129C5.93748 27.9919 4.83093 27.5335 4.01507 26.7177C3.1992 25.9018 2.74086 24.7953 2.74086 23.6415V10.0681ZM22.2308 20.3351H25.3631C25.5477 20.3351 25.7248 20.4085 25.8553 20.539C25.9858 20.6695 26.0592 20.8466 26.0592 21.0312C26.0592 21.2158 25.9858 21.3929 25.8553 21.5234C25.7248 21.6539 25.5477 21.7273 25.3631 21.7273H22.2308C22.0462 21.7273 21.8691 21.6539 21.7386 21.5234C21.6081 21.3929 21.5347 21.2158 21.5347 21.0312C21.5347 20.8466 21.6081 20.6695 21.7386 20.539C21.8691 20.4085 22.0462 20.3351 22.2308 20.3351Z" fill="#4CAF4F" stroke="#4CAF4F" stroke-width="0.696069"/>
</svg>
