<svg width="35" height="34" viewBox="0 0 35 34" fill="none" xmlns="http://www.w3.org/2000/svg">
<path d="M28.7676 29.3839V26.5997C28.7676 25.1228 28.1809 23.7064 27.1366 22.6621C26.0923 21.6178 24.6759 21.0311 23.1991 21.0311H21.8069C21.4377 21.0311 21.0836 20.8844 20.8225 20.6234C20.5615 20.3623 20.4148 20.0082 20.4148 19.639V12.6783C20.4148 11.9398 20.1215 11.2316 19.5993 10.7095C19.0771 10.1873 18.369 9.894 17.6305 9.894C16.8921 9.894 16.1839 10.1873 15.6617 10.7095C15.1396 11.2316 14.8462 11.9398 14.8462 12.6783V25.2075L11.5051 20.7527C11.2458 20.4069 10.9095 20.1262 10.5229 19.9329C10.1362 19.7396 9.70993 19.639 9.27769 19.639H8.6735C7.4693 19.639 6.49341 20.6149 6.49341 21.8191C6.49341 22.2144 6.6006 22.6028 6.80386 22.9411L10.6698 29.3839M17.6305 5.71758V4.32544V5.71758ZM25.9834 14.0704H27.3755H25.9834ZM7.88555 14.0704H9.27769H7.88555ZM11.1473 7.58722L10.1631 6.60298L11.1473 7.58722ZM24.1137 7.58722L25.098 6.60298L24.1137 7.58722Z" fill="#4CAF4F"/>
<path d="M28.7676 29.3839V26.5997C28.7676 25.1228 28.1809 23.7064 27.1366 22.6621C26.0923 21.6178 24.6759 21.0311 23.1991 21.0311H21.8069C21.4377 21.0311 21.0836 20.8844 20.8225 20.6234C20.5615 20.3623 20.4148 20.0082 20.4148 19.639V12.6783C20.4148 11.9398 20.1215 11.2316 19.5993 10.7095C19.0771 10.1873 18.369 9.894 17.6305 9.894V9.894C16.8921 9.894 16.1839 10.1873 15.6617 10.7095C15.1396 11.2316 14.8462 11.9398 14.8462 12.6783V25.2075L11.5051 20.7527C11.2458 20.4069 10.9095 20.1262 10.5229 19.9329C10.1362 19.7396 9.70993 19.639 9.27769 19.639H8.6735C7.4693 19.639 6.49341 20.6149 6.49341 21.8191C6.49341 22.2144 6.6006 22.6028 6.80386 22.9411L10.6698 29.3839M17.6305 5.71758V4.32544M25.9834 14.0704H27.3755M7.88555 14.0704H9.27769M11.1473 7.58722L10.1631 6.60298M24.1137 7.58722L25.098 6.60298" stroke="#4CAF4F" stroke-width="1.39214" stroke-linecap="round" stroke-linejoin="round"/>
</svg>
