<svg width="24" height="22" viewBox="0 0 24 22" fill="none" xmlns="http://www.w3.org/2000/svg">
<mask id="path-1-inside-1_344_718" fill="white">
<path d="M14.7069 10.4583C14.5393 10.4583 14.3837 10.4123 14.2454 10.3381V10.3401C14.2454 10.6038 14.1429 10.8514 13.957 11.0369C13.771 11.2229 13.5235 11.3254 13.2601 11.3254C13.0901 11.3254 12.9325 11.2782 12.7928 11.2021C12.7786 11.4433 12.6822 11.6688 12.5102 11.841C12.3242 12.027 12.0768 12.1295 11.8132 12.1295C11.2896 12.1295 10.8643 11.7178 10.8337 11.2019C10.6717 11.2895 10.4885 11.3354 10.2995 11.3233C9.78442 11.2895 9.38101 10.8444 9.38101 10.3098V5.87814L8.87639 6.75237C8.68419 7.08675 8.32441 7.29436 7.93704 7.29436C7.74829 7.29436 7.56183 7.24484 7.39669 7.15021C7.19105 7.03099 7.04394 6.83961 6.98277 6.61066C6.92128 6.38156 6.95309 6.14197 7.07198 5.93664C7.07215 5.93664 8.72305 3.07774 8.82377 2.90213C8.83574 2.87573 8.86985 2.79914 8.89888 2.73387C8.9266 2.67156 8.95038 2.6076 8.97317 2.54331C9.47103 1.13775 10.7038 0.264652 12.1905 0.264652C14.1212 0.264652 15.6919 1.96786 15.6919 4.06143L15.6921 9.47292C15.6921 9.73629 15.5898 9.98376 15.404 10.1699C15.218 10.3559 14.9705 10.4584 14.7069 10.4584L14.7069 10.4583ZM12.1906 0.788195C10.9131 0.788195 9.89482 1.50978 9.46664 2.71841C9.43926 2.79515 9.41072 2.8719 9.37743 2.94668C9.28084 3.16332 9.28084 3.16332 9.25362 3.19447L9.25001 3.19136C9.11521 3.44571 8.71474 4.13923 7.5253 6.19866C7.47643 6.28311 7.46347 6.38119 7.4884 6.47499C7.51366 6.56879 7.57417 6.64783 7.65797 6.69621C7.91806 6.84561 8.27427 6.74918 8.42251 6.49089L9.41614 4.77059C9.47551 4.6681 9.59555 4.61775 9.71067 4.64891C9.82514 4.67958 9.90467 4.78339 9.90467 4.90179V10.3099C9.90467 10.5651 10.0972 10.7853 10.3339 10.8009C10.4703 10.8081 10.5976 10.7624 10.6932 10.6669C10.7801 10.58 10.828 10.4642 10.828 10.3404V6.80342C10.828 6.65878 10.9452 6.54152 11.0899 6.54152C11.2345 6.54152 11.3518 6.65862 11.3518 6.80342L11.3516 11.1444C11.3516 11.3989 11.5587 11.606 11.8132 11.606C11.9369 11.606 12.053 11.5581 12.1401 11.4712C12.227 11.3841 12.2749 11.268 12.2749 11.1444V6.80342C12.2749 6.65878 12.392 6.54152 12.5368 6.54152C12.6814 6.54152 12.7987 6.65861 12.7987 6.80342L12.7985 10.2997V10.3404C12.7985 10.5947 13.0056 10.8019 13.2603 10.8019C13.3838 10.8019 13.4996 10.7538 13.5871 10.6666C13.6741 10.5798 13.7219 10.464 13.7219 10.3402V6.80323C13.7219 6.65859 13.839 6.54134 13.9838 6.54134C14.1285 6.54134 14.2457 6.65843 14.2457 6.80323L14.2454 9.47304C14.2454 9.72772 14.4525 9.93484 14.7069 9.93484C14.8307 9.93484 14.9465 9.8868 15.0334 9.80005C15.1206 9.7128 15.1683 9.59669 15.1683 9.47304L15.1685 4.06155C15.1685 2.25683 13.8326 0.788249 12.1905 0.788249L12.1906 0.788195Z"/>
</mask>
<path d="M14.7069 10.4583C14.5393 10.4583 14.3837 10.4123 14.2454 10.3381V10.3401C14.2454 10.6038 14.1429 10.8514 13.957 11.0369C13.771 11.2229 13.5235 11.3254 13.2601 11.3254C13.0901 11.3254 12.9325 11.2782 12.7928 11.2021C12.7786 11.4433 12.6822 11.6688 12.5102 11.841C12.3242 12.027 12.0768 12.1295 11.8132 12.1295C11.2896 12.1295 10.8643 11.7178 10.8337 11.2019C10.6717 11.2895 10.4885 11.3354 10.2995 11.3233C9.78442 11.2895 9.38101 10.8444 9.38101 10.3098V5.87814L8.87639 6.75237C8.68419 7.08675 8.32441 7.29436 7.93704 7.29436C7.74829 7.29436 7.56183 7.24484 7.39669 7.15021C7.19105 7.03099 7.04394 6.83961 6.98277 6.61066C6.92128 6.38156 6.95309 6.14197 7.07198 5.93664C7.07215 5.93664 8.72305 3.07774 8.82377 2.90213C8.83574 2.87573 8.86985 2.79914 8.89888 2.73387C8.9266 2.67156 8.95038 2.6076 8.97317 2.54331C9.47103 1.13775 10.7038 0.264652 12.1905 0.264652C14.1212 0.264652 15.6919 1.96786 15.6919 4.06143L15.6921 9.47292C15.6921 9.73629 15.5898 9.98376 15.404 10.1699C15.218 10.3559 14.9705 10.4584 14.7069 10.4584L14.7069 10.4583ZM12.1906 0.788195C10.9131 0.788195 9.89482 1.50978 9.46664 2.71841C9.43926 2.79515 9.41072 2.8719 9.37743 2.94668C9.28084 3.16332 9.28084 3.16332 9.25362 3.19447L9.25001 3.19136C9.11521 3.44571 8.71474 4.13923 7.5253 6.19866C7.47643 6.28311 7.46347 6.38119 7.4884 6.47499C7.51366 6.56879 7.57417 6.64783 7.65797 6.69621C7.91806 6.84561 8.27427 6.74918 8.42251 6.49089L9.41614 4.77059C9.47551 4.6681 9.59555 4.61775 9.71067 4.64891C9.82514 4.67958 9.90467 4.78339 9.90467 4.90179V10.3099C9.90467 10.5651 10.0972 10.7853 10.3339 10.8009C10.4703 10.8081 10.5976 10.7624 10.6932 10.6669C10.7801 10.58 10.828 10.4642 10.828 10.3404V6.80342C10.828 6.65878 10.9452 6.54152 11.0899 6.54152C11.2345 6.54152 11.3518 6.65862 11.3518 6.80342L11.3516 11.1444C11.3516 11.3989 11.5587 11.606 11.8132 11.606C11.9369 11.606 12.053 11.5581 12.1401 11.4712C12.227 11.3841 12.2749 11.268 12.2749 11.1444V6.80342C12.2749 6.65878 12.392 6.54152 12.5368 6.54152C12.6814 6.54152 12.7987 6.65861 12.7987 6.80342L12.7985 10.2997V10.3404C12.7985 10.5947 13.0056 10.8019 13.2603 10.8019C13.3838 10.8019 13.4996 10.7538 13.5871 10.6666C13.6741 10.5798 13.7219 10.464 13.7219 10.3402V6.80323C13.7219 6.65859 13.839 6.54134 13.9838 6.54134C14.1285 6.54134 14.2457 6.65843 14.2457 6.80323L14.2454 9.47304C14.2454 9.72772 14.4525 9.93484 14.7069 9.93484C14.8307 9.93484 14.9465 9.8868 15.0334 9.80005C15.1206 9.7128 15.1683 9.59669 15.1683 9.47304L15.1685 4.06155C15.1685 2.25683 13.8326 0.788249 12.1905 0.788249L12.1906 0.788195Z" fill="#4CAF4F"/>
<path d="M14.7069 10.4583V9.53025H17.9859L15.1933 11.2488L14.7069 10.4583ZM14.2454 10.3381H13.3173V8.7874L14.684 9.52021L14.2454 10.3381ZM13.957 11.0369L13.3007 10.3807L13.3016 10.3798L13.957 11.0369ZM12.7928 11.2021L11.8662 11.1479L11.9516 9.68723L13.2366 10.387L12.7928 11.2021ZM12.5102 11.841L13.1668 12.4969L13.1665 12.4973L12.5102 11.841ZM10.8337 11.2019L10.3924 10.3854L11.6738 9.69289L11.7601 11.1469L10.8337 11.2019ZM10.2995 11.3233L10.24 12.2494L10.2388 12.2494L10.2995 11.3233ZM9.38101 5.87814L8.57722 5.41417L10.3091 2.41376V5.87814H9.38101ZM8.87639 6.75237L8.07175 6.28987L8.07259 6.28841L8.87639 6.75237ZM7.39669 7.15021L6.93527 7.95549L6.93121 7.95313L7.39669 7.15021ZM6.98277 6.61066L7.87913 6.37005L7.87941 6.37109L6.98277 6.61066ZM7.07198 5.93664L6.26882 5.47158L6.53693 5.00854H7.07198V5.93664ZM8.82377 2.90213L9.66903 3.28539L9.65081 3.32558L9.62886 3.36386L8.82377 2.90213ZM8.89888 2.73387L8.05086 2.35675L8.05087 2.35674L8.89888 2.73387ZM8.97317 2.54331L9.848 2.85319L9.84791 2.85344L8.97317 2.54331ZM15.6919 4.06143L14.7638 4.06146V4.06143H15.6919ZM15.6921 9.47292L16.6202 9.47289V9.47292H15.6921ZM15.404 10.1699L16.0608 10.8256L16.0602 10.8262L15.404 10.1699ZM14.7069 10.4584V11.3865H11.4279L14.2204 9.66795L14.7069 10.4584ZM12.1906 0.788195V-0.139897H13.421L13.0829 1.04316L12.1906 0.788195ZM9.46664 2.71841L10.3415 3.02833L10.3407 3.03032L9.46664 2.71841ZM9.37743 2.94668L10.2253 3.32414L10.2251 3.32463L9.37743 2.94668ZM9.25362 3.19447L9.95251 3.80513L9.34537 4.50001L8.647 3.89688L9.25362 3.19447ZM9.25001 3.19136L8.42996 2.75675L8.97528 1.72779L9.85663 2.48896L9.25001 3.19136ZM7.5253 6.19866L8.32898 6.66283L8.32859 6.6635L7.5253 6.19866ZM7.4884 6.47499L6.59222 6.71626L6.59144 6.71336L7.4884 6.47499ZM7.65797 6.69621L7.1957 7.50099L7.19397 7.49999L7.65797 6.69621ZM8.42251 6.49089L7.61756 6.02891L7.61884 6.0267L8.42251 6.49089ZM9.41614 4.77059L8.61247 4.3064L8.61304 4.30542L9.41614 4.77059ZM9.71067 4.64891L9.4705 5.54539L9.4682 5.54477L9.71067 4.64891ZM10.3339 10.8009L10.2848 11.7278L10.2729 11.727L10.3339 10.8009ZM10.6932 10.6669L11.3494 11.3232L11.3489 11.3238L10.6932 10.6669ZM11.3518 6.80342L12.2798 6.80342L12.2798 6.80346L11.3518 6.80342ZM11.3516 11.1444L10.4235 11.1444L10.4235 11.1443L11.3516 11.1444ZM12.1401 11.4712L12.7969 12.1268L12.7957 12.1281L12.1401 11.4712ZM12.7987 6.80342L13.7268 6.80342L13.7268 6.80346L12.7987 6.80342ZM12.7985 10.2997L11.8704 10.2997L11.8704 10.2997L12.7985 10.2997ZM13.5871 10.6666L14.2428 11.3234L14.2422 11.3241L13.5871 10.6666ZM14.2457 6.80323L15.1738 6.80323L15.1738 6.80335L14.2457 6.80323ZM14.2454 9.47304L13.3173 9.47304L13.3173 9.47293L14.2454 9.47304ZM15.0334 9.80005L15.6896 10.4563L15.689 10.4569L15.0334 9.80005ZM15.1683 9.47304L14.2402 9.47304L14.2402 9.47301L15.1683 9.47304ZM15.1685 4.06155L16.0966 4.06155L16.0966 4.06158L15.1685 4.06155ZM12.1905 0.788249V1.71634H10.9601L11.2982 0.533282L12.1905 0.788249ZM14.7069 11.3864C14.3651 11.3864 14.06 11.2918 13.8068 11.1561L14.684 9.52021C14.696 9.52664 14.7036 9.5291 14.7066 9.52991C14.7092 9.53061 14.7089 9.53025 14.7069 9.53025V11.3864ZM15.1735 10.3381V10.3401H13.3173V10.3381H15.1735ZM15.1735 10.3401C15.1735 10.8492 14.9737 11.3336 14.6123 11.6941L13.3016 10.3798C13.3082 10.3732 13.3115 10.3675 13.3134 10.3629C13.3153 10.3582 13.3173 10.3511 13.3173 10.3401H15.1735ZM14.6132 11.6932C14.253 12.0534 13.7695 12.2535 13.2601 12.2535V10.3973C13.2708 10.3973 13.2778 10.3954 13.2826 10.3934C13.2873 10.3914 13.2934 10.3879 13.3007 10.3807L14.6132 11.6932ZM13.2601 12.2535C12.9139 12.2535 12.605 12.1566 12.3489 12.0171L13.2366 10.387C13.2487 10.3936 13.2564 10.3961 13.2594 10.3969C13.262 10.3976 13.2618 10.3973 13.2601 10.3973V12.2535ZM13.7193 11.2562C13.6926 11.7131 13.5072 12.1561 13.1668 12.4969L11.8536 11.1851C11.857 11.1816 11.859 11.1786 11.8607 11.1747C11.8625 11.1706 11.8654 11.1621 11.8662 11.1479L13.7193 11.2562ZM13.1665 12.4973C12.8062 12.8575 12.3226 13.0575 11.8132 13.0575V11.2014C11.824 11.2014 11.8311 11.1994 11.8358 11.1974C11.8406 11.1955 11.8467 11.192 11.8539 11.1847L13.1665 12.4973ZM11.8132 13.0575C10.7886 13.0575 9.96641 12.2534 9.90722 11.2569L11.7601 11.1469C11.7611 11.1627 11.7675 11.1765 11.779 11.1874C11.7845 11.1927 11.7902 11.1961 11.7951 11.1981C11.7994 11.1999 11.8049 11.2014 11.8132 11.2014V13.0575ZM11.275 12.0184C10.9752 12.1804 10.6197 12.2738 10.24 12.2494L10.359 10.3971C10.3591 10.3971 10.361 10.3973 10.3659 10.3961C10.3712 10.3949 10.3802 10.392 10.3924 10.3854L11.275 12.0184ZM10.2388 12.2494C9.20832 12.1818 8.45292 11.3054 8.45292 10.3098H10.3091C10.3091 10.3411 10.3205 10.3653 10.3348 10.3811C10.3487 10.3964 10.3582 10.397 10.3603 10.3972L10.2388 12.2494ZM8.45292 10.3098V5.87814H10.3091V10.3098H8.45292ZM10.1848 6.34211L9.68019 7.21634L8.07259 6.28841L8.57722 5.41417L10.1848 6.34211ZM9.68103 7.21488C9.32241 7.83879 8.65487 8.22246 7.93704 8.22246V6.36627C7.99395 6.36627 8.04597 6.33471 8.07175 6.28987L9.68103 7.21488ZM7.93704 8.22246C7.58607 8.22246 7.24059 8.13042 6.93527 7.95548L7.85811 6.34495C7.88307 6.35925 7.9105 6.36627 7.93704 6.36627V8.22246ZM6.93121 7.95313C6.51452 7.71156 6.21123 7.31844 6.08613 6.85023L7.87941 6.37109C7.87857 6.36793 7.87625 6.36232 7.87178 6.3565C7.86735 6.35072 7.86324 6.34791 7.86217 6.34729L6.93121 7.95313ZM6.08641 6.85127C5.96082 6.3834 6.02657 5.88994 6.26882 5.47158L7.87515 6.40169C7.87647 6.39941 7.87879 6.39412 7.87979 6.38662C7.88078 6.3791 7.87995 6.37309 7.87913 6.37005L6.08641 6.85127ZM7.07198 5.00854C6.61672 5.12788 6.27595 5.45946 6.27341 5.46374C6.27256 5.46517 6.2713 5.46732 6.2709 5.46801C6.27067 5.4684 6.27027 5.46908 6.27014 5.46931C6.27005 5.46945 6.26988 5.46974 6.26984 5.46981C6.26971 5.47004 6.26975 5.46997 6.2701 5.46936C6.27073 5.46828 6.27179 5.46645 6.27333 5.46378C6.27638 5.45851 6.28096 5.45059 6.28701 5.44012C6.29909 5.41921 6.31685 5.38847 6.33952 5.34923C6.38485 5.27075 6.44973 5.15842 6.52791 5.02305C6.68426 4.75231 6.89377 4.38949 7.10643 4.02118C7.53245 3.28331 7.96921 2.52666 8.01868 2.4404L9.62886 3.36386C9.57761 3.45321 9.13856 4.21381 8.71391 4.9493C8.50123 5.31766 8.29169 5.68054 8.1353 5.95133C8.05711 6.08673 7.9922 6.19912 7.94682 6.27767C7.92414 6.31695 7.90631 6.3478 7.89414 6.36886C7.88807 6.37937 7.88336 6.38752 7.88014 6.39308C7.87855 6.39583 7.87724 6.3981 7.87627 6.39976C7.87583 6.40053 7.87527 6.4015 7.87473 6.40242C7.87454 6.40276 7.87394 6.40378 7.87322 6.40501C7.87277 6.40578 7.87147 6.40799 7.8706 6.40947C7.86803 6.41379 7.52725 6.7454 7.07198 6.86473V5.00854ZM7.97851 2.51887C7.98872 2.49634 8.02109 2.42369 8.05086 2.35675L9.7469 3.111C9.71862 3.17459 9.68276 3.25511 9.66903 3.28539L7.97851 2.51887ZM8.05087 2.35674C8.06377 2.32773 8.07804 2.29067 8.09842 2.23319L9.84791 2.85344C9.82271 2.92453 9.78942 3.01538 9.74689 3.11101L8.05087 2.35674ZM8.09833 2.23344C8.72692 0.458823 10.3091 -0.663441 12.1905 -0.663441V1.19274C11.0985 1.19274 10.2151 1.81669 9.848 2.85319L8.09833 2.23344ZM12.1905 -0.663441C14.7031 -0.663441 16.62 1.5275 16.62 4.06143H14.7638C14.7638 2.40823 13.5393 1.19274 12.1905 1.19274V-0.663441ZM16.62 4.0614L16.6202 9.47289L14.764 9.47295L14.7638 4.06146L16.62 4.0614ZM16.6202 9.47292C16.6202 9.98186 16.4205 10.4652 16.0608 10.8256L14.7471 9.51425C14.7544 9.5069 14.758 9.50065 14.76 9.49578C14.762 9.4909 14.764 9.48374 14.764 9.47292H16.6202ZM16.0602 10.8262C15.7 11.1864 15.2163 11.3865 14.7069 11.3865V9.53027C14.7178 9.53027 14.7249 9.52829 14.7296 9.52633C14.7344 9.52437 14.7405 9.52088 14.7477 9.51364L16.0602 10.8262ZM14.2204 9.66795L14.2205 9.66793L15.1933 11.2488L15.1933 11.2488L14.2204 9.66795ZM12.1906 1.71629C11.3082 1.71629 10.639 2.18833 10.3415 3.02832L8.59182 2.40849C9.15059 0.831238 10.5179 -0.139897 12.1906 -0.139897V1.71629ZM10.3407 3.03032C10.3115 3.11242 10.2734 3.21611 10.2253 3.32414L8.52956 2.56923C8.54805 2.52769 8.56706 2.47789 8.59253 2.40649L10.3407 3.03032ZM10.2251 3.32463C10.1826 3.41995 10.147 3.50045 10.1197 3.55498C10.1028 3.58882 10.0754 3.64097 10.0357 3.69875C9.99551 3.75728 9.95575 3.80143 9.95251 3.80513L8.55472 2.58382C8.5569 2.58133 8.55618 2.58214 8.55508 2.58341C8.55366 2.58506 8.55006 2.58927 8.54533 2.59503C8.54042 2.60101 8.53425 2.60873 8.52729 2.61791C8.52027 2.62717 8.51313 2.63702 8.50599 2.64741C8.49145 2.66857 8.48025 2.6871 8.47229 2.70111C8.46486 2.7142 8.46031 2.72325 8.45929 2.72529C8.45824 2.7274 8.4589 2.72616 8.46205 2.71941C8.46511 2.71286 8.46943 2.70344 8.47564 2.68972C8.48179 2.67613 8.48916 2.65971 8.49824 2.63942C8.5073 2.61916 8.51765 2.59595 8.52978 2.56874L10.2251 3.32463ZM8.647 3.89688L8.64339 3.89376L9.85663 2.48896L9.86024 2.49207L8.647 3.89688ZM10.0701 3.62596C9.9248 3.90004 9.51012 4.61776 8.32898 6.66283L6.72162 5.73449C7.91935 3.66069 8.30561 2.99138 8.42996 2.75675L10.0701 3.62596ZM8.32859 6.6635C8.40286 6.53516 8.42355 6.38033 8.38536 6.23661L6.59144 6.71336C6.50339 6.38204 6.55 6.03107 6.72201 5.73382L8.32859 6.6635ZM8.38458 6.23371C8.34639 6.09186 8.25253 5.9678 8.12197 5.89243L7.19397 7.49999C6.89581 7.32787 6.68092 7.04572 6.59222 6.71626L8.38458 6.23371ZM8.12024 5.89143C8.01459 5.83075 7.91185 5.83115 7.8409 5.85025C7.77022 5.86928 7.6796 5.92083 7.61757 6.02891L9.22745 6.95287C8.82296 7.65763 7.89857 7.90471 7.19571 7.50099L8.12024 5.89143ZM7.61884 6.0267L8.61247 4.3064L10.2198 5.23479L9.22617 6.95509L7.61884 6.0267ZM8.61304 4.30542C8.88111 3.84261 9.42827 3.61099 9.95314 3.75305L9.4682 5.54477C9.76282 5.62451 10.0699 5.49359 10.2192 5.23576L8.61304 4.30542ZM9.95084 3.75243C10.4715 3.89192 10.8328 4.36377 10.8328 4.90179H8.97658C8.97658 5.20301 9.17876 5.46723 9.4705 5.54539L9.95084 3.75243ZM10.8328 4.90179V10.3099H8.97658V4.90179H10.8328ZM10.8328 10.3099C10.8328 10.2042 10.7936 10.108 10.7293 10.0344C10.6651 9.96098 10.5517 9.88514 10.3948 9.87481L10.2729 11.727C9.49163 11.6756 8.97658 10.995 8.97658 10.3099H10.8328ZM10.3829 9.8741C10.2732 9.8683 10.1393 9.90847 10.0375 10.0101L11.3489 11.3238C11.0558 11.6163 10.6674 11.7479 10.2848 11.7277L10.3829 9.8741ZM10.0369 10.0107C9.94882 10.0987 9.89987 10.2194 9.89987 10.3404H11.7561C11.7561 10.709 11.6113 11.0613 11.3494 11.3232L10.0369 10.0107ZM9.89987 10.3404V6.80342H11.7561V10.3404H9.89987ZM9.89987 6.80342C9.89987 6.14621 10.4326 5.61343 11.0899 5.61343V7.46962C11.4578 7.46962 11.7561 7.17135 11.7561 6.80342H9.89987ZM11.0899 5.61343C11.7467 5.61343 12.2798 6.14567 12.2798 6.80342H10.4237C10.4237 7.17156 10.7223 7.46962 11.0899 7.46962V5.61343ZM12.2798 6.80346L12.2797 11.1444L10.4235 11.1443L10.4237 6.80339L12.2798 6.80346ZM12.2797 11.1444C12.2797 10.8863 12.0713 10.6779 11.8132 10.6779V12.5341C11.0461 12.5341 10.4235 11.9115 10.4235 11.1444H12.2797ZM11.8132 10.6779C11.6924 10.6779 11.5723 10.7266 11.4844 10.8143L12.7957 12.1281C12.5336 12.3897 12.1813 12.5341 11.8132 12.5341V10.6779ZM11.4832 10.8156C11.3954 10.9035 11.3468 11.0236 11.3468 11.1444H13.203C13.203 11.5125 13.0585 11.8648 12.7969 12.1268L11.4832 10.8156ZM11.3468 11.1444V6.80342H13.203V11.1444H11.3468ZM11.3468 6.80342C11.3468 6.14659 11.879 5.61343 12.5368 5.61343V7.46961C12.9049 7.46961 13.203 7.17096 13.203 6.80342H11.3468ZM12.5368 5.61343C13.1936 5.61343 13.7268 6.14566 13.7268 6.80342H11.8706C11.8706 7.17156 12.1692 7.46961 12.5368 7.46961V5.61343ZM13.7268 6.80346L13.7266 10.2998L11.8704 10.2997L11.8706 6.80337L13.7268 6.80346ZM13.7266 10.2997V10.3404H11.8704V10.2997H13.7266ZM13.7266 10.3404C13.7266 10.0817 13.5177 9.87377 13.2603 9.87377V11.73C12.4935 11.73 11.8704 11.1078 11.8704 10.3404H13.7266ZM13.2603 9.87377C13.137 9.87377 13.0176 9.92392 12.9321 10.0091L14.2422 11.3241C13.9815 11.5837 13.6306 11.73 13.2603 11.73V9.87377ZM12.9315 10.0097C12.8427 10.0983 12.7938 10.2194 12.7938 10.3402H14.65C14.65 10.7087 14.5054 11.0613 14.2428 11.3234L12.9315 10.0097ZM12.7938 10.3402V6.80323H14.65V10.3402H12.7938ZM12.7938 6.80323C12.7938 6.14639 13.3261 5.61324 13.9838 5.61324V7.46943C14.352 7.46943 14.65 7.17079 14.65 6.80323H12.7938ZM13.9838 5.61324C14.6407 5.61324 15.1738 6.14548 15.1738 6.80323H13.3176C13.3176 7.17138 13.6163 7.46943 13.9838 7.46943V5.61324ZM15.1738 6.80335L15.1735 9.47316L13.3173 9.47293L13.3176 6.80312L15.1738 6.80335ZM15.1735 9.47304C15.1735 9.21559 14.9655 9.00675 14.7069 9.00675V10.8629C13.9395 10.8629 13.3173 10.2399 13.3173 9.47304H15.1735ZM14.7069 9.00675C14.5851 9.00675 14.465 9.05604 14.3777 9.14317L15.689 10.4569C15.4279 10.7175 15.0762 10.8629 14.7069 10.8629V9.00675ZM14.3771 9.14378C14.2887 9.23216 14.2402 9.35277 14.2402 9.47304H16.0964C16.0964 9.84061 15.9525 10.1934 15.6896 10.4563L14.3771 9.14378ZM14.2402 9.47301L14.2404 4.06152L16.0966 4.06158L16.0964 9.47307L14.2402 9.47301ZM14.2404 4.06155C14.2404 2.68482 13.2394 1.71634 12.1905 1.71634V-0.139844C14.4259 -0.139844 16.0966 1.82884 16.0966 4.06155H14.2404ZM11.2982 0.533282L11.2982 0.533229L13.0829 1.04316L13.0829 1.04322L11.2982 0.533282Z" fill="#4CAF4F" mask="url(#path-1-inside-1_344_718)"/>
<mask id="path-3-inside-2_344_718" fill="white">
<path d="M4.4172 14.2195L8.21754 11.9396C8.67574 11.6644 9.26529 11.7814 9.55917 12.2059C9.66642 12.3606 9.72119 12.5408 9.72972 12.7243C9.87141 12.6504 10.0256 12.6102 10.1825 12.6102C10.2629 12.6102 10.3435 12.6202 10.4232 12.64C10.6786 12.7038 10.8937 12.8634 11.029 13.089C11.1645 13.315 11.204 13.5799 11.1402 13.8349C11.0814 14.0709 10.9379 14.2695 10.7383 14.4058C10.8778 14.4881 10.9982 14.6004 11.0838 14.7434C11.2193 14.9694 11.2588 15.2341 11.1952 15.4894C11.1314 15.7445 10.9718 15.9596 10.7458 16.0953L10.7445 16.0961C10.8816 16.1782 10.9999 16.2894 11.0845 16.4303C11.2201 16.6563 11.2596 16.9211 11.1958 17.1764C11.1319 17.4316 10.9723 17.6468 10.7467 17.7822L6.10638 20.566C5.24033 21.0854 4.23914 21.2646 3.28766 21.0703C2.32765 20.8742 1.5326 20.3224 1.04917 19.5165C0.284135 18.2414 0.398788 16.735 1.34781 15.5852C1.39127 15.5328 1.43407 15.4793 1.47293 15.4239C1.5141 15.3653 1.56215 15.2964 1.57854 15.2728C1.67677 15.0973 3.27949 12.2098 3.27949 12.2098C3.44135 11.9177 3.74473 11.7524 4.05763 11.7525C4.20358 11.7525 4.35167 11.7885 4.48828 11.8642C4.65326 11.9564 4.79183 12.0907 4.88875 12.2526C5.088 12.5846 5.09505 13.0002 4.90745 13.3365L4.4172 14.2195ZM4.44 12.5218C4.38916 12.437 4.3193 12.3694 4.23386 12.3215C4.05724 12.2238 3.83486 12.2874 3.73763 12.4634C2.59068 14.5297 2.1997 15.2339 2.04881 15.4845L2.05226 15.4853C2.03963 15.5273 2.03963 15.5273 1.90155 15.7246C1.85465 15.7913 1.80365 15.8554 1.75166 15.9186C0.935615 16.9073 0.840862 18.1515 1.49797 19.2471C1.90499 19.9257 2.5777 20.391 3.39224 20.5572C4.21563 20.7247 5.08349 20.5689 5.83673 20.1169L10.4774 17.333C10.5834 17.2696 10.6581 17.1687 10.688 17.0492C10.7178 16.9298 10.6993 16.8056 10.6357 16.6997C10.5048 16.4816 10.2206 16.4099 10.0025 16.5413L7.71318 17.9147C7.5892 17.9892 7.42816 17.9492 7.35387 17.825C7.27942 17.701 7.3196 17.5402 7.44358 17.4657L9.73307 16.0923L10.4766 15.6462C10.5825 15.5826 10.6575 15.4817 10.6873 15.3625C10.7172 15.2429 10.6987 15.1186 10.635 15.0129C10.504 14.7946 10.2198 14.7236 10.0019 14.8544L6.96882 16.6739C6.84451 16.7486 6.68396 16.7082 6.60951 16.5842C6.53506 16.4603 6.5754 16.2994 6.69921 16.2249L10.4217 13.9919C10.5276 13.9282 10.6024 13.8275 10.6322 13.708C10.6621 13.5886 10.6436 13.4645 10.5801 13.3585C10.5166 13.2528 10.4158 13.178 10.2962 13.1481C10.176 13.1183 10.0524 13.1368 9.94676 13.2001L9.25766 13.6135L6.2243 15.4332C6.1 15.508 5.93928 15.4676 5.86499 15.3435C5.79054 15.2195 5.83088 15.0587 5.9547 14.9842L8.98773 13.1647C9.09367 13.1011 9.16862 13.0002 9.19846 12.881C9.23126 12.7501 9.20633 12.6163 9.1286 12.5041C8.9938 12.3091 8.7055 12.2573 8.4869 12.3887L3.84957 15.1707C3.74805 15.2313 3.61801 15.2166 3.53289 15.1344C3.44762 15.0521 3.42843 14.9227 3.48583 14.8192L4.45011 13.0819C4.54687 12.9082 4.54315 12.6937 4.44 12.5218Z"/>
</mask>
<path d="M4.4172 14.2195L8.21754 11.9396C8.67574 11.6644 9.26529 11.7814 9.55917 12.2059C9.66642 12.3606 9.72119 12.5408 9.72972 12.7243C9.87141 12.6504 10.0256 12.6102 10.1825 12.6102C10.2629 12.6102 10.3435 12.6202 10.4232 12.64C10.6786 12.7038 10.8937 12.8634 11.029 13.089C11.1645 13.315 11.204 13.5799 11.1402 13.8349C11.0814 14.0709 10.9379 14.2695 10.7383 14.4058C10.8778 14.4881 10.9982 14.6004 11.0838 14.7434C11.2193 14.9694 11.2588 15.2341 11.1952 15.4894C11.1314 15.7445 10.9718 15.9596 10.7458 16.0953L10.7445 16.0961C10.8816 16.1782 10.9999 16.2894 11.0845 16.4303C11.2201 16.6563 11.2596 16.9211 11.1958 17.1764C11.1319 17.4316 10.9723 17.6468 10.7467 17.7822L6.10638 20.566C5.24033 21.0854 4.23914 21.2646 3.28766 21.0703C2.32765 20.8742 1.5326 20.3224 1.04917 19.5165C0.284135 18.2414 0.398788 16.735 1.34781 15.5852C1.39127 15.5328 1.43407 15.4793 1.47293 15.4239C1.5141 15.3653 1.56215 15.2964 1.57854 15.2728C1.67677 15.0973 3.27949 12.2098 3.27949 12.2098C3.44135 11.9177 3.74473 11.7524 4.05763 11.7525C4.20358 11.7525 4.35167 11.7885 4.48828 11.8642C4.65326 11.9564 4.79183 12.0907 4.88875 12.2526C5.088 12.5846 5.09505 13.0002 4.90745 13.3365L4.4172 14.2195ZM4.44 12.5218C4.38916 12.437 4.3193 12.3694 4.23386 12.3215C4.05724 12.2238 3.83486 12.2874 3.73763 12.4634C2.59068 14.5297 2.1997 15.2339 2.04881 15.4845L2.05226 15.4853C2.03963 15.5273 2.03963 15.5273 1.90155 15.7246C1.85465 15.7913 1.80365 15.8554 1.75166 15.9186C0.935615 16.9073 0.840862 18.1515 1.49797 19.2471C1.90499 19.9257 2.5777 20.391 3.39224 20.5572C4.21563 20.7247 5.08349 20.5689 5.83673 20.1169L10.4774 17.333C10.5834 17.2696 10.6581 17.1687 10.688 17.0492C10.7178 16.9298 10.6993 16.8056 10.6357 16.6997C10.5048 16.4816 10.2206 16.4099 10.0025 16.5413L7.71318 17.9147C7.5892 17.9892 7.42816 17.9492 7.35387 17.825C7.27942 17.701 7.3196 17.5402 7.44358 17.4657L9.73307 16.0923L10.4766 15.6462C10.5825 15.5826 10.6575 15.4817 10.6873 15.3625C10.7172 15.2429 10.6987 15.1186 10.635 15.0129C10.504 14.7946 10.2198 14.7236 10.0019 14.8544L6.96882 16.6739C6.84451 16.7486 6.68396 16.7082 6.60951 16.5842C6.53506 16.4603 6.5754 16.2994 6.69921 16.2249L10.4217 13.9919C10.5276 13.9282 10.6024 13.8275 10.6322 13.708C10.6621 13.5886 10.6436 13.4645 10.5801 13.3585C10.5166 13.2528 10.4158 13.178 10.2962 13.1481C10.176 13.1183 10.0524 13.1368 9.94676 13.2001L9.25766 13.6135L6.2243 15.4332C6.1 15.508 5.93928 15.4676 5.86499 15.3435C5.79054 15.2195 5.83088 15.0587 5.9547 14.9842L8.98773 13.1647C9.09367 13.1011 9.16862 13.0002 9.19846 12.881C9.23126 12.7501 9.20633 12.6163 9.1286 12.5041C8.9938 12.3091 8.7055 12.2573 8.4869 12.3887L3.84957 15.1707C3.74805 15.2313 3.61801 15.2166 3.53289 15.1344C3.44762 15.0521 3.42843 14.9227 3.48583 14.8192L4.45011 13.0819C4.54687 12.9082 4.54315 12.6937 4.44 12.5218Z" fill="#4CAF4F"/>
<path d="M4.4172 14.2195L4.89464 15.0153L1.92433 16.7972L3.6058 13.7689L4.4172 14.2195ZM8.21754 11.9396L8.69538 12.7352L8.69499 12.7355L8.21754 11.9396ZM9.55917 12.2059L8.79653 12.7349L8.79604 12.7341L9.55917 12.2059ZM9.72972 12.7243L10.1592 13.5471L8.87011 14.22L8.80262 12.7674L9.72972 12.7243ZM10.4232 12.64L10.6475 11.7394L10.6482 11.7396L10.4232 12.64ZM11.029 13.089L11.825 12.6117L11.8251 12.6119L11.029 13.089ZM11.1402 13.8349L10.2397 13.6102L10.2399 13.6097L11.1402 13.8349ZM10.7383 14.4058L10.2667 15.2051L9.00861 14.463L10.2149 13.6393L10.7383 14.4058ZM11.0838 14.7434L10.2878 15.2206L10.2875 15.2201L11.0838 14.7434ZM11.1952 15.4894L12.0957 15.7139L12.0955 15.7147L11.1952 15.4894ZM10.7458 16.0953L10.2539 15.3082L10.261 15.3038L10.2682 15.2995L10.7458 16.0953ZM10.7445 16.0961L10.2674 16.8922L8.96678 16.1127L10.2526 15.3091L10.7445 16.0961ZM11.0845 16.4303L11.88 15.9524L11.8803 15.9527L11.0845 16.4303ZM11.1958 17.1764L12.0962 17.4014L12.0961 17.4021L11.1958 17.1764ZM10.7467 17.7822L11.2244 18.5779L11.2241 18.5781L10.7467 17.7822ZM6.10638 20.566L6.58383 21.3619L6.58369 21.362L6.10638 20.566ZM3.28766 21.0703L3.10194 21.9796L3.10188 21.9796L3.28766 21.0703ZM1.04917 19.5165L1.845 19.039L1.84506 19.0391L1.04917 19.5165ZM1.34781 15.5852L0.63204 14.9944L0.63301 14.9933L1.34781 15.5852ZM1.47293 15.4239L0.713021 14.891L0.713717 14.8901L1.47293 15.4239ZM1.57854 15.2728L2.38838 15.7262L2.36646 15.7653L2.34087 15.8022L1.57854 15.2728ZM3.27949 12.2098L4.09126 12.6596L4.09097 12.6602L3.27949 12.2098ZM4.05763 11.7525L4.05763 12.6806L4.05713 12.6806L4.05763 11.7525ZM4.48828 11.8642L4.93841 11.0526L4.94091 11.054L4.48828 11.8642ZM4.88875 12.2526L4.09292 12.7301L4.09249 12.7293L4.88875 12.2526ZM4.90745 13.3365L4.09604 12.886L4.09693 12.8844L4.90745 13.3365ZM4.44 12.5218L3.64422 12.9994L3.64402 12.999L4.44 12.5218ZM4.23386 12.3215L4.68324 11.5095L4.68759 11.5119L4.23386 12.3215ZM3.73763 12.4634L4.54995 12.9123L4.54909 12.9138L3.73763 12.4634ZM2.04881 15.4845L1.8338 16.3873L0.598934 16.0932L1.25372 15.0057L2.04881 15.4845ZM2.05226 15.4853L2.26727 14.5825L3.22442 14.8104L2.94102 15.7526L2.05226 15.4853ZM1.90155 15.7246L2.66191 16.2567L2.6609 16.2582L1.90155 15.7246ZM1.75166 15.9186L2.46813 16.5085L2.46744 16.5093L1.75166 15.9186ZM1.49797 19.2471L0.702065 19.7245L0.702049 19.7245L1.49797 19.2471ZM3.39224 20.5572L3.2073 21.4667L3.20659 21.4666L3.39224 20.5572ZM5.83673 20.1169L5.35922 19.3211L5.35929 19.3211L5.83673 20.1169ZM10.4774 17.333L9.99999 16.5371L10.0005 16.5369L10.4774 17.333ZM10.688 17.0492L9.78754 16.8244L9.78761 16.8241L10.688 17.0492ZM10.6357 16.6997L9.84007 17.1776L9.83985 17.1772L10.6357 16.6997ZM10.0025 16.5413L10.4813 17.3363L10.48 17.3371L10.0025 16.5413ZM7.71318 17.9147L7.23538 17.1191L7.23572 17.1189L7.71318 17.9147ZM7.35387 17.825L8.14952 17.3472L8.15026 17.3484L7.35387 17.825ZM7.44358 17.4657L6.96577 16.6701L6.96614 16.6698L7.44358 17.4657ZM9.73307 16.0923L10.2105 16.8881L10.2105 16.8881L9.73307 16.0923ZM10.4766 15.6462L10.9545 16.4418L10.9541 16.4421L10.4766 15.6462ZM10.6873 15.3625L11.5878 15.5873L11.5877 15.5879L10.6873 15.3625ZM10.635 15.0129L9.83974 15.4913L9.8393 15.4905L10.635 15.0129ZM10.0019 14.8544L10.4796 15.6501L10.4793 15.6503L10.0019 14.8544ZM6.96882 16.6739L6.49117 15.8782L6.49138 15.8781L6.96882 16.6739ZM6.60951 16.5842L7.40516 16.1064L7.40516 16.1064L6.60951 16.5842ZM6.69921 16.2249L6.22094 15.4296L6.22178 15.4291L6.69921 16.2249ZM10.4217 13.9919L10.8995 14.7875L10.8991 14.7877L10.4217 13.9919ZM10.6322 13.708L9.73179 13.4832L9.73186 13.4829L10.6322 13.708ZM10.5801 13.3585L11.3759 12.881L11.3762 12.8816L10.5801 13.3585ZM10.2962 13.1481L10.5199 12.2474L10.521 12.2477L10.2962 13.1481ZM9.94676 13.2001L9.46928 12.4043L9.46961 12.4041L9.94676 13.2001ZM9.25766 13.6135L9.73514 14.4094L9.7351 14.4094L9.25766 13.6135ZM6.2243 15.4332L5.74588 14.6379L5.74687 14.6373L6.2243 15.4332ZM5.86499 15.3435L6.66064 14.8657L6.66139 14.8669L5.86499 15.3435ZM5.9547 14.9842L5.47643 14.1888L5.47726 14.1883L5.9547 14.9842ZM8.98773 13.1647L9.4656 13.9603L9.46517 13.9606L8.98773 13.1647ZM9.19846 12.881L8.29815 12.6556L8.29821 12.6554L9.19846 12.881ZM9.1286 12.5041L8.36577 13.0328L8.36518 13.0319L9.1286 12.5041ZM8.4869 12.3887L8.96493 13.1842L8.96435 13.1845L8.4869 12.3887ZM3.84957 15.1707L4.32701 15.9665L4.32573 15.9673L3.84957 15.1707ZM3.53289 15.1344L2.88832 15.8022L2.88829 15.8021L3.53289 15.1344ZM3.48583 14.8192L2.67423 14.369L2.67435 14.3688L3.48583 14.8192ZM4.45011 13.0819L3.63864 12.6315L3.63936 12.6302L4.45011 13.0819ZM3.93976 13.4236L7.7401 11.1437L8.69499 12.7355L4.89464 15.0153L3.93976 13.4236ZM7.73971 11.144C8.5934 10.6313 9.7343 10.8282 10.3223 11.6777L8.79604 12.7341C8.79493 12.7325 8.78965 12.7247 8.76931 12.7207C8.74841 12.7166 8.72198 12.7193 8.69538 12.7352L7.73971 11.144ZM10.3218 11.677C10.5387 11.9898 10.6411 12.3426 10.6568 12.6813L8.80262 12.7674C8.80131 12.7391 8.79411 12.7314 8.79653 12.7349L10.3218 11.677ZM9.30025 11.9016C9.56481 11.7635 9.86543 11.6821 10.1825 11.6821V13.5383C10.1835 13.5383 10.1825 13.5381 10.1791 13.539C10.1755 13.5399 10.1688 13.5421 10.1592 13.5471L9.30025 11.9016ZM10.1825 11.6821C10.3401 11.6821 10.496 11.7017 10.6475 11.7394L10.199 13.5406C10.191 13.5387 10.1856 13.5383 10.1825 13.5383V11.6821ZM10.6482 11.7396C11.1427 11.8632 11.5631 12.1751 11.825 12.6117L10.2331 13.5663C10.2277 13.5574 10.2226 13.5525 10.2185 13.5494C10.2144 13.5464 10.2082 13.5429 10.1983 13.5405L10.6482 11.7396ZM11.8251 12.6119C12.0866 13.0482 12.1643 13.5656 12.0406 14.0601L10.2399 13.6097C10.2423 13.6 10.2422 13.593 10.2414 13.5879C10.2406 13.5828 10.2387 13.5756 10.233 13.5662L11.8251 12.6119ZM12.0407 14.0595C11.9241 14.5271 11.6396 14.9141 11.2616 15.1722L10.2149 13.6393C10.2267 13.6313 10.2324 13.6245 10.2349 13.621C10.2371 13.6178 10.2386 13.6148 10.2397 13.6102L12.0407 14.0595ZM11.2098 13.6064C11.4669 13.758 11.7059 13.9757 11.8801 14.2667L10.2875 15.2201C10.2885 15.2217 10.2887 15.2215 10.2865 15.2194C10.2841 15.217 10.278 15.2118 10.2667 15.2051L11.2098 13.6064ZM11.8798 14.2663C12.1415 14.7027 12.2189 15.2197 12.0957 15.7139L10.2946 15.265C10.2972 15.2548 10.297 15.2476 10.2962 15.2425C10.2955 15.2373 10.2935 15.2301 10.2878 15.2206L11.8798 14.2663ZM12.0955 15.7147C11.9718 16.209 11.6598 16.6291 11.2235 16.891L10.2682 15.2995C10.2776 15.2938 10.2828 15.2884 10.2859 15.2842C10.289 15.28 10.2924 15.2739 10.2948 15.2642L12.0955 15.7147ZM11.2377 16.8823L11.2364 16.8831L10.2526 15.3091L10.2539 15.3082L11.2377 16.8823ZM11.2216 15.3C11.474 15.4513 11.7083 15.6664 11.88 15.9524L10.2889 16.9082C10.2896 16.9094 10.2896 16.909 10.2873 16.9066C10.2847 16.9041 10.2786 16.8988 10.2674 16.8922L11.2216 15.3ZM11.8803 15.9527C12.1423 16.3894 12.2198 16.9069 12.0962 17.4014L10.2954 16.9515C10.2979 16.9414 10.2978 16.9344 10.297 16.9293C10.2963 16.9243 10.2943 16.9172 10.2887 16.9079L11.8803 15.9527ZM12.0961 17.4021C11.9723 17.896 11.6606 18.316 11.2244 18.5779L10.2689 16.9865C10.2781 16.981 10.2832 16.9757 10.2864 16.9714C10.2895 16.9672 10.2931 16.9608 10.2956 16.9508L12.0961 17.4021ZM11.2241 18.5781L6.58383 21.3619L5.62892 19.7702L10.2692 16.9864L11.2241 18.5781ZM6.58369 21.362C5.52745 21.9954 4.29076 22.2224 3.10194 21.9796L3.47338 20.161C4.18752 20.3069 4.9532 20.1754 5.62906 19.7701L6.58369 21.362ZM3.10188 21.9796C1.89932 21.7339 0.876911 21.0335 0.253294 19.9939L1.84506 19.0391C2.18829 19.6112 2.75599 20.0144 3.47344 20.161L3.10188 21.9796ZM0.253346 19.994C-0.714786 18.3805 -0.566222 16.4462 0.632041 14.9944L2.06357 16.176C1.3638 17.0238 1.28306 18.1024 1.845 19.039L0.253346 19.994ZM0.63301 14.9933C0.671418 14.9469 0.695591 14.9159 0.713021 14.891L2.23285 15.9567C2.17254 16.0427 2.11111 16.1186 2.0626 16.1772L0.63301 14.9933ZM0.713717 14.8901C0.753828 14.833 0.800842 14.7656 0.81622 14.7435L2.34087 15.8022C2.32345 15.8273 2.27436 15.8976 2.23215 15.9577L0.713717 14.8901ZM0.768708 14.8195C0.816764 14.7336 1.24064 13.9703 1.65442 13.225C1.86089 12.8531 2.06429 12.4867 2.21607 12.2133C2.29196 12.0765 2.35495 11.9631 2.39896 11.8838C2.42097 11.8441 2.43823 11.813 2.44999 11.7918C2.45587 11.7812 2.46038 11.7731 2.46341 11.7677C2.46493 11.7649 2.46608 11.7628 2.46685 11.7615C2.46724 11.7608 2.46753 11.7602 2.46772 11.7599C2.46782 11.7597 2.46789 11.7596 2.46794 11.7595C2.46796 11.7595 2.46798 11.7594 2.46799 11.7594C2.46801 11.7594 2.46801 11.7594 3.27949 12.2098C4.09097 12.6602 4.09096 12.6602 4.09095 12.6602C4.09094 12.6602 4.09092 12.6603 4.09089 12.6603C4.09084 12.6604 4.09077 12.6605 4.09067 12.6607C4.09048 12.661 4.09019 12.6616 4.0898 12.6623C4.08903 12.6636 4.08788 12.6657 4.08636 12.6685C4.08333 12.6739 4.07882 12.682 4.07294 12.6926C4.06118 12.7138 4.04391 12.7449 4.0219 12.7846C3.97788 12.8639 3.91489 12.9774 3.83899 13.1141C3.6872 13.3876 3.48377 13.754 3.27728 14.126C2.86515 14.8683 2.43855 15.6365 2.38838 15.7262L0.768708 14.8195ZM2.46772 11.7599C2.79998 11.1603 3.42184 10.8241 4.05812 10.8244L4.05713 12.6806C4.06374 12.6806 4.06946 12.6791 4.07493 12.6759C4.0817 12.672 4.08793 12.6656 4.09126 12.6596L2.46772 11.7599ZM4.05763 10.8244C4.3566 10.8244 4.6602 10.8983 4.93841 11.0526L4.03815 12.6758C4.0401 12.6769 4.0432 12.6783 4.0471 12.6793C4.05087 12.6802 4.05445 12.6806 4.05763 12.6806V10.8244ZM4.94091 11.054C5.24716 11.2251 5.50441 11.4742 5.68501 11.7758L4.09249 12.7293C4.07925 12.7072 4.05935 12.6877 4.03565 12.6745L4.94091 11.054ZM5.68458 11.7751C6.05376 12.3904 6.06839 13.1605 5.71796 13.7887L4.09693 12.8844C4.12172 12.84 4.12224 12.7789 4.09292 12.7301L5.68458 11.7751ZM5.71885 13.7871L5.2286 14.67L3.6058 13.7689L4.09604 12.886L5.71885 13.7871ZM3.64402 12.999C3.67664 13.0534 3.72495 13.1002 3.78012 13.1312L4.68759 11.5119C4.91364 11.6386 5.10168 11.8205 5.23597 12.0445L3.64402 12.999ZM3.78448 13.1336C4.05386 13.2827 4.39769 13.1878 4.54995 12.9123L2.92531 12.0145C3.27204 11.3871 4.06062 11.165 4.68323 11.5095L3.78448 13.1336ZM4.54909 12.9138C3.40987 14.9662 3.00593 15.6941 2.84391 15.9632L1.25372 15.0057C1.39347 14.7736 1.77148 14.0932 2.92616 12.013L4.54909 12.9138ZM2.26383 14.5816L2.26727 14.5825L1.83724 16.3881L1.8338 16.3873L2.26383 14.5816ZM2.94102 15.7526C2.9397 15.757 2.9227 15.817 2.89302 15.8848C2.86312 15.9531 2.83101 16.0068 2.80924 16.0413C2.77491 16.0958 2.72197 16.1709 2.66191 16.2567L1.1412 15.1924C1.15855 15.1676 1.17331 15.1465 1.18618 15.1281C1.19907 15.1096 1.20942 15.0947 1.21793 15.0824C1.22652 15.07 1.23225 15.0616 1.23609 15.0558C1.24007 15.0499 1.2404 15.0493 1.23866 15.052C1.23573 15.0567 1.21461 15.0902 1.19258 15.1405C1.18723 15.1527 1.18242 15.1646 1.17812 15.1759C1.17387 15.1871 1.17049 15.1967 1.16798 15.2042C1.16556 15.2114 1.16389 15.2167 1.16326 15.2188C1.16278 15.2203 1.1625 15.2213 1.1635 15.218L2.94102 15.7526ZM2.6609 16.2582C2.59391 16.3535 2.52558 16.4387 2.46813 16.5085L1.03519 15.3286C1.08172 15.2721 1.11539 15.2291 1.1422 15.1909L2.6609 16.2582ZM2.46744 16.5093C1.90047 17.1963 1.83986 18.0128 2.29388 18.7697L0.702049 19.7245C-0.15814 18.2903 -0.0292434 16.6183 1.03588 15.3278L2.46744 16.5093ZM2.29387 18.7697C2.55957 19.2127 3.00375 19.5307 3.57788 19.6479L3.20659 21.4666C2.15165 21.2512 1.25042 20.6387 0.702065 19.7245L2.29387 18.7697ZM3.57718 19.6478C4.16282 19.7669 4.79547 19.6594 5.35922 19.3211L6.31423 20.9128C5.37151 21.4784 4.26844 21.6825 3.2073 21.4667L3.57718 19.6478ZM5.35929 19.3211L9.99999 16.5371L10.9549 18.1289L6.31416 20.9128L5.35929 19.3211ZM10.0005 16.5369C9.89533 16.5999 9.81749 16.7044 9.78754 16.8244L11.5884 17.2739C11.4988 17.633 11.2714 17.9393 10.9544 18.1292L10.0005 16.5369ZM9.78761 16.8241C9.75755 16.9443 9.77725 17.073 9.84007 17.1776L11.4313 16.2218C11.6214 16.5383 11.6781 16.9152 11.5884 17.2742L9.78761 16.8241ZM9.83985 17.1772C9.97158 17.3967 10.2575 17.4711 10.4813 17.3363L9.52369 15.7462C10.1838 15.3487 11.038 15.5664 11.4315 16.2222L9.83985 17.1772ZM10.48 17.3371L8.19064 18.7106L7.23572 17.1189L9.52504 15.7454L10.48 17.3371ZM8.19098 18.7104C7.6287 19.048 6.89622 18.8676 6.55748 18.3016L8.15026 17.3484C7.9601 17.0307 7.5497 16.9303 7.23538 17.1191L8.19098 18.7104ZM6.55822 18.3028C6.21981 17.7393 6.40249 17.0083 6.96577 16.6701L7.92138 18.2614C8.2367 18.072 8.33903 17.6628 8.14952 17.3472L6.55822 18.3028ZM6.96614 16.6698L9.25563 15.2964L10.2105 16.8881L7.92101 18.2616L6.96614 16.6698ZM9.25562 15.2964L9.99917 14.8503L10.9541 16.4421L10.2105 16.8881L9.25562 15.2964ZM9.99875 14.8506C9.89539 14.9127 9.81732 15.0161 9.78703 15.1371L11.5877 15.5879C11.4977 15.9473 11.2697 16.2525 10.9545 16.4418L9.99875 14.8506ZM9.78689 15.1377C9.75707 15.2571 9.7763 15.3858 9.83974 15.4913L11.4303 14.5344C11.621 14.8515 11.6773 15.2288 11.5878 15.5873L9.78689 15.1377ZM9.8393 15.4905C9.97178 15.7112 10.2576 15.7835 10.4796 15.6501L9.52409 14.0588C10.182 13.6637 11.0362 13.8779 11.4308 14.5352L9.8393 15.4905ZM10.4793 15.6503L7.44625 17.4698L6.49138 15.8781L9.52442 14.0586L10.4793 15.6503ZM7.44647 17.4697C6.8821 17.8085 6.15177 17.6248 5.81386 17.062L7.40516 16.1064C7.21615 15.7917 6.80692 15.6887 6.49117 15.8782L7.44647 17.4697ZM5.81386 17.062C5.47503 16.4978 5.65904 15.7674 6.22094 15.4296L7.17748 17.0203C7.49175 16.8313 7.59509 16.4227 7.40516 16.1064L5.81386 17.062ZM6.22178 15.4291L9.94424 13.196L10.8991 14.7877L7.17665 17.0208L6.22178 15.4291ZM9.94382 13.1963C9.84002 13.2586 9.7619 13.3626 9.73179 13.4832L11.5327 13.9328C11.4429 14.2925 11.2152 14.5979 10.8995 14.7875L9.94382 13.1963ZM9.73186 13.4829C9.70182 13.6031 9.72154 13.7313 9.78394 13.8355L11.3762 12.8816C11.5656 13.1976 11.6224 13.5741 11.5326 13.9331L9.73186 13.4829ZM9.78426 13.836C9.84723 13.941 9.95157 14.0187 10.0714 14.0486L10.521 12.2477C10.88 12.3373 11.186 12.5645 11.3759 12.881L9.78426 13.836ZM10.0726 14.0489C10.1902 14.0781 10.3186 14.0593 10.4239 13.9962L9.46961 12.4041C9.78617 12.2143 10.1619 12.1585 10.5199 12.2474L10.0726 14.0489ZM10.4242 13.996L9.73514 14.4094L8.78019 12.8177L9.46928 12.4043L10.4242 13.996ZM9.7351 14.4094L6.70173 16.2291L5.74687 14.6373L8.78023 12.8177L9.7351 14.4094ZM6.70272 16.2285C6.13838 16.568 5.40647 16.3847 5.0686 15.8201L6.66139 14.8669C6.47209 14.5506 6.06161 14.448 5.74588 14.6379L6.70272 16.2285ZM5.06934 15.8213C4.73052 15.2571 4.91453 14.5267 5.47643 14.1888L6.43297 15.7796C6.74724 15.5906 6.85057 15.182 6.66064 14.8657L5.06934 15.8213ZM5.47726 14.1883L8.5103 12.3688L9.46517 13.9606L6.43214 15.7801L5.47726 14.1883ZM8.50987 12.3691C8.40651 12.4312 8.32844 12.5346 8.29815 12.6556L10.0988 13.1064C10.0088 13.4658 9.78083 13.771 9.4656 13.9603L8.50987 12.3691ZM8.29821 12.6554C8.26489 12.7883 8.29371 12.9288 8.36577 13.0328L9.89143 11.9755C10.119 12.3038 10.1976 12.7119 10.0987 13.1066L8.29821 12.6554ZM8.36518 13.0319C8.45515 13.162 8.57902 13.2202 8.67488 13.2375C8.77093 13.2547 8.87377 13.239 8.96493 13.1842L8.00888 11.5932C8.59612 11.2403 9.44618 11.3315 9.89202 11.9764L8.36518 13.0319ZM8.96435 13.1845L4.32701 15.9665L3.37212 14.3748L8.00946 11.5928L8.96435 13.1845ZM4.32573 15.9673C3.86551 16.2424 3.27596 16.1764 2.88832 15.8022L4.17747 14.4667C3.96006 14.2568 3.63059 14.2203 3.3734 14.374L4.32573 15.9673ZM2.88829 15.8021C2.50031 15.4276 2.41326 14.8395 2.67423 14.369L4.29743 15.2694C4.4436 15.0059 4.39493 14.6766 4.1775 14.4667L2.88829 15.8021ZM2.67435 14.3688L3.63864 12.6315L5.26159 13.5323L4.29731 15.2696L2.67435 14.3688ZM3.63936 12.6302C3.57326 12.7488 3.57775 12.8886 3.64422 12.9994L5.23577 12.0442C5.50854 12.4987 5.52048 13.0676 5.26087 13.5336L3.63936 12.6302Z" fill="#4CAF4F" mask="url(#path-3-inside-2_344_718)"/>
<mask id="path-5-inside-3_344_718" fill="white">
<path d="M22.5769 19.5164C22.0936 20.3224 21.2987 20.8741 20.3386 21.0702C19.3869 21.2642 18.3861 21.0853 17.5199 20.5659L12.8792 17.782C12.6533 17.6465 12.4936 17.4314 12.4297 17.1759C12.3662 16.9209 12.4059 16.656 12.5412 16.4303C12.6256 16.2893 12.744 16.1781 12.8813 16.096L12.88 16.0951C12.6542 15.9597 12.4944 15.7445 12.4308 15.4893C12.3669 15.2342 12.4065 14.9691 12.542 14.7432C12.6292 14.5981 12.7488 14.4846 12.8852 14.4041C12.6871 14.2678 12.5445 14.0699 12.4857 13.835C12.4218 13.5797 12.4615 13.3148 12.5969 13.0891C12.7322 12.8633 12.9476 12.7038 13.2027 12.64C13.2824 12.62 13.3633 12.6101 13.4433 12.6101C13.6004 12.6103 13.7546 12.6501 13.8963 12.7243C13.905 12.5408 13.9596 12.3605 14.0668 12.2059C14.3609 11.7816 14.9499 11.6642 15.4088 11.9396L19.209 14.2191L18.7191 13.3368C18.5312 12.9999 18.5381 12.5844 18.7373 12.2521C18.8344 12.0904 18.9732 11.9561 19.139 11.8631C19.2752 11.7877 19.4228 11.7519 19.5684 11.7519C19.8812 11.7521 20.1849 11.9171 20.3466 12.2092C20.9101 13.2245 21.9734 15.1392 22.0481 15.2729C22.0641 15.296 22.1121 15.3649 22.1533 15.4234C22.1925 15.479 22.2348 15.5322 22.2786 15.585C23.2274 16.7352 23.3419 18.2415 22.5769 19.5164L22.5769 19.5164ZM21.8745 15.9187C21.8224 15.8556 21.7712 15.7911 21.7246 15.7247C21.583 15.5237 21.5793 15.5184 21.5687 15.4658C21.4031 15.1917 20.999 14.4643 19.8883 12.4632C19.7909 12.2876 19.5695 12.2235 19.3932 12.3209C19.3064 12.3694 19.2367 12.4371 19.1859 12.5219C19.0829 12.6936 19.079 12.9081 19.1762 13.0823L20.1402 14.8191C20.1977 14.9228 20.1785 15.052 20.0934 15.1343C20.0085 15.2168 19.8786 15.2312 19.7766 15.1706L15.1393 12.3886C14.9207 12.2576 14.6325 12.3089 14.4974 12.504C14.4197 12.6162 14.3949 12.75 14.4274 12.8807C14.4572 13.0001 14.5322 13.1008 14.6383 13.1644C14.6386 13.1646 14.6387 13.1649 14.6391 13.1651L17.6711 14.9841C17.7951 15.0585 17.8353 15.2193 17.7608 15.3434C17.6864 15.4672 17.5258 15.5077 17.4015 15.4331L13.6791 13.2C13.5735 13.1367 13.4492 13.118 13.3298 13.148C13.2101 13.1779 13.1094 13.2527 13.0459 13.3588C12.9823 13.4646 12.9639 13.5887 12.9934 13.7081C13.0233 13.8275 13.0982 13.9283 13.2042 13.992L13.9285 14.4264L16.9264 16.2251C17.0504 16.2995 17.0906 16.4602 17.0162 16.5844C16.9417 16.7082 16.7812 16.7485 16.6568 16.6741L13.6241 14.8546C13.406 14.7234 13.122 14.7945 12.9908 15.013C12.9272 15.1189 12.9088 15.2431 12.9383 15.3625C12.9682 15.4818 13.0431 15.5825 13.1492 15.6463L13.8928 16.0924L16.1819 17.4658C16.3059 17.5403 16.3461 17.701 16.2716 17.8251C16.1972 17.9489 16.0366 17.9896 15.9123 17.9148L13.6232 16.5414C13.5175 16.4781 13.3937 16.4594 13.2737 16.4894C13.1543 16.5193 13.0533 16.594 12.9898 16.6998C12.9264 16.8057 12.9078 16.9301 12.9373 17.0493C12.9672 17.1687 13.0421 17.2694 13.1482 17.3331L17.7889 20.1171C18.542 20.5689 19.4105 20.7253 20.2334 20.5574C21.0478 20.3911 21.7205 19.9258 22.1275 19.2472C22.7853 18.1514 22.6907 16.9071 21.8748 15.9187L21.8745 15.9187Z"/>
</mask>
<path d="M22.5769 19.5164C22.0936 20.3224 21.2987 20.8741 20.3386 21.0702C19.3869 21.2642 18.3861 21.0853 17.5199 20.5659L12.8792 17.782C12.6533 17.6465 12.4936 17.4314 12.4297 17.1759C12.3662 16.9209 12.4059 16.656 12.5412 16.4303C12.6256 16.2893 12.744 16.1781 12.8813 16.096L12.88 16.0951C12.6542 15.9597 12.4944 15.7445 12.4308 15.4893C12.3669 15.2342 12.4065 14.9691 12.542 14.7432C12.6292 14.5981 12.7488 14.4846 12.8852 14.4041C12.6871 14.2678 12.5445 14.0699 12.4857 13.835C12.4218 13.5797 12.4615 13.3148 12.5969 13.0891C12.7322 12.8633 12.9476 12.7038 13.2027 12.64C13.2824 12.62 13.3633 12.6101 13.4433 12.6101C13.6004 12.6103 13.7546 12.6501 13.8963 12.7243C13.905 12.5408 13.9596 12.3605 14.0668 12.2059C14.3609 11.7816 14.9499 11.6642 15.4088 11.9396L19.209 14.2191L18.7191 13.3368C18.5312 12.9999 18.5381 12.5844 18.7373 12.2521C18.8344 12.0904 18.9732 11.9561 19.139 11.8631C19.2752 11.7877 19.4228 11.7519 19.5684 11.7519C19.8812 11.7521 20.1849 11.9171 20.3466 12.2092C20.9101 13.2245 21.9734 15.1392 22.0481 15.2729C22.0641 15.296 22.1121 15.3649 22.1533 15.4234C22.1925 15.479 22.2348 15.5322 22.2786 15.585C23.2274 16.7352 23.3419 18.2415 22.5769 19.5164L22.5769 19.5164ZM21.8745 15.9187C21.8224 15.8556 21.7712 15.7911 21.7246 15.7247C21.583 15.5237 21.5793 15.5184 21.5687 15.4658C21.4031 15.1917 20.999 14.4643 19.8883 12.4632C19.7909 12.2876 19.5695 12.2235 19.3932 12.3209C19.3064 12.3694 19.2367 12.4371 19.1859 12.5219C19.0829 12.6936 19.079 12.9081 19.1762 13.0823L20.1402 14.8191C20.1977 14.9228 20.1785 15.052 20.0934 15.1343C20.0085 15.2168 19.8786 15.2312 19.7766 15.1706L15.1393 12.3886C14.9207 12.2576 14.6325 12.3089 14.4974 12.504C14.4197 12.6162 14.3949 12.75 14.4274 12.8807C14.4572 13.0001 14.5322 13.1008 14.6383 13.1644C14.6386 13.1646 14.6387 13.1649 14.6391 13.1651L17.6711 14.9841C17.7951 15.0585 17.8353 15.2193 17.7608 15.3434C17.6864 15.4672 17.5258 15.5077 17.4015 15.4331L13.6791 13.2C13.5735 13.1367 13.4492 13.118 13.3298 13.148C13.2101 13.1779 13.1094 13.2527 13.0459 13.3588C12.9823 13.4646 12.9639 13.5887 12.9934 13.7081C13.0233 13.8275 13.0982 13.9283 13.2042 13.992L13.9285 14.4264L16.9264 16.2251C17.0504 16.2995 17.0906 16.4602 17.0162 16.5844C16.9417 16.7082 16.7812 16.7485 16.6568 16.6741L13.6241 14.8546C13.406 14.7234 13.122 14.7945 12.9908 15.013C12.9272 15.1189 12.9088 15.2431 12.9383 15.3625C12.9682 15.4818 13.0431 15.5825 13.1492 15.6463L13.8928 16.0924L16.1819 17.4658C16.3059 17.5403 16.3461 17.701 16.2716 17.8251C16.1972 17.9489 16.0366 17.9896 15.9123 17.9148L13.6232 16.5414C13.5175 16.4781 13.3937 16.4594 13.2737 16.4894C13.1543 16.5193 13.0533 16.594 12.9898 16.6998C12.9264 16.8057 12.9078 16.9301 12.9373 17.0493C12.9672 17.1687 13.0421 17.2694 13.1482 17.3331L17.7889 20.1171C18.542 20.5689 19.4105 20.7253 20.2334 20.5574C21.0478 20.3911 21.7205 19.9258 22.1275 19.2472C22.7853 18.1514 22.6907 16.9071 21.8748 15.9187L21.8745 15.9187Z" fill="#4CAF4F"/>
<path d="M22.5769 19.5164L22.2774 18.6379L24.6761 17.8202L23.3729 19.9936L22.5769 19.5164ZM20.3386 21.0702L20.5243 21.9795L20.524 21.9796L20.3386 21.0702ZM17.5199 20.5659L17.0426 21.3619L17.0424 21.3618L17.5199 20.5659ZM12.8792 17.782L13.3566 16.9861L13.3566 16.9861L12.8792 17.782ZM12.4297 17.1759L11.5293 17.4012L11.529 17.4L12.4297 17.1759ZM12.5412 16.4303L13.3374 16.9072L13.3372 16.9076L12.5412 16.4303ZM12.8813 16.096L13.3732 15.3089L14.6598 16.1131L13.3579 16.8923L12.8813 16.096ZM12.88 16.0951L13.3574 15.2993L13.3647 15.3036L13.3719 15.3081L12.88 16.0951ZM12.4308 15.4893L13.3311 15.2637L13.3313 15.2648L12.4308 15.4893ZM12.542 14.7432L11.746 14.266L11.7466 14.265L12.542 14.7432ZM12.8852 14.4041L13.4112 13.6394L14.6099 14.464L13.3569 15.2034L12.8852 14.4041ZM12.4857 13.835L13.386 13.6095L13.3861 13.6099L12.4857 13.835ZM12.5969 13.0891L13.3931 13.5661L13.3927 13.5668L12.5969 13.0891ZM13.2027 12.64L13.4287 13.5401L13.4278 13.5404L13.2027 12.64ZM13.4433 12.6101L13.4433 11.682L13.4443 11.682L13.4433 12.6101ZM13.8963 12.7243L14.8233 12.7682L14.7545 14.2207L13.466 13.5466L13.8963 12.7243ZM14.0668 12.2059L14.8296 12.7346L14.8295 12.7348L14.0668 12.2059ZM15.4088 11.9396L14.9314 12.7354L14.9313 12.7354L15.4088 11.9396ZM19.209 14.2191L20.0204 13.7686L21.7014 16.7964L18.7316 15.0149L19.209 14.2191ZM18.7191 13.3368L19.5296 12.8846L19.5306 12.8863L18.7191 13.3368ZM18.7373 12.2521L17.9414 11.7748L17.9417 11.7744L18.7373 12.2521ZM19.139 11.8631L18.685 11.0536L18.6895 11.0511L19.139 11.8631ZM19.5684 11.7519L19.5684 10.8238L19.5689 10.8238L19.5684 11.7519ZM20.3466 12.2092L19.5351 12.6595L19.5346 12.6586L20.3466 12.2092ZM22.0481 15.2729L21.2835 15.7989L21.2592 15.7635L21.2382 15.726L22.0481 15.2729ZM22.1533 15.4234L21.3947 15.9582L21.3941 15.9572L22.1533 15.4234ZM22.2786 15.585L22.993 14.9926L22.9945 14.9944L22.2786 15.585ZM22.5769 19.5164L22.8763 20.3948L20.4765 21.213L21.7811 19.0388L22.5769 19.5164ZM21.8745 15.9187L21.9665 16.8422L21.4741 16.8913L21.159 16.5098L21.8745 15.9187ZM21.7246 15.7247L22.4833 15.1901L22.4845 15.1918L21.7246 15.7247ZM21.5687 15.4658L22.363 14.9857L22.4463 15.1236L22.4783 15.2816L21.5687 15.4658ZM19.8883 12.4632L19.0768 12.9136L19.0766 12.9133L19.8883 12.4632ZM19.3932 12.3209L18.94 11.5109L18.9443 11.5085L19.3932 12.3209ZM19.1859 12.5219L19.9819 12.9992L19.9818 12.9993L19.1859 12.5219ZM19.1762 13.0823L19.9866 12.6299L19.9877 12.6319L19.1762 13.0823ZM20.1402 14.8191L19.3288 15.2697L19.3287 15.2695L20.1402 14.8191ZM20.0934 15.1343L19.4469 14.4685L19.4482 14.4672L20.0934 15.1343ZM19.7766 15.1706L19.3021 15.9682L19.2991 15.9664L19.7766 15.1706ZM15.1393 12.3886L15.6164 11.5925L15.6167 11.5927L15.1393 12.3886ZM14.4974 12.504L15.2604 13.0324L15.2602 13.0327L14.4974 12.504ZM14.4274 12.8807L13.527 13.1058L13.5266 13.1045L14.4274 12.8807ZM14.6383 13.1644L14.2231 13.9945L14.1914 13.9786L14.1609 13.9604L14.6383 13.1644ZM14.6391 13.1651L15.0542 12.335L15.086 12.3509L15.1165 12.3692L14.6391 13.1651ZM17.6711 14.9841L18.1486 14.1882L18.1489 14.1884L17.6711 14.9841ZM17.7608 15.3434L18.5568 15.8208L18.5562 15.8217L17.7608 15.3434ZM17.4015 15.4331L17.879 14.6372L17.8792 14.6374L17.4015 15.4331ZM13.6791 13.2L14.1562 12.404L14.1565 12.4042L13.6791 13.2ZM13.3298 13.148L13.556 14.0481L13.5543 14.0486L13.3298 13.148ZM13.0459 13.3588L13.8424 13.8352L13.8412 13.8372L13.0459 13.3588ZM12.9934 13.7081L12.093 13.9332L12.0925 13.9308L12.9934 13.7081ZM13.2042 13.992L12.7268 14.7879L12.7263 14.7876L13.2042 13.992ZM13.9285 14.4264L14.4059 13.6305L14.406 13.6305L13.9285 14.4264ZM16.9264 16.2251L17.4039 15.4292L17.4043 15.4294L16.9264 16.2251ZM17.0162 16.5844L17.8121 17.0617L17.8115 17.0626L17.0162 16.5844ZM16.6568 16.6741L16.1799 17.4703L16.1794 17.4699L16.6568 16.6741ZM13.6241 14.8546L13.1467 15.6504L13.1458 15.6499L13.6241 14.8546ZM12.9908 15.013L13.7864 15.4908L13.7864 15.4908L12.9908 15.013ZM12.9383 15.3625L12.0379 15.5875L12.0374 15.5852L12.9383 15.3625ZM13.1492 15.6463L12.6718 16.4422L12.671 16.4417L13.1492 15.6463ZM13.8928 16.0924L14.3702 15.2965L14.3703 15.2965L13.8928 16.0924ZM16.1819 17.4658L16.6594 16.67L16.6597 16.6702L16.1819 17.4658ZM16.2716 17.8251L17.0675 18.3025L17.067 18.3034L16.2716 17.8251ZM15.9123 17.9148L16.3898 17.119L16.3908 17.1196L15.9123 17.9148ZM13.6232 16.5414L14.1003 15.7453L14.1006 15.7456L13.6232 16.5414ZM13.2737 16.4894L13.0486 15.589L13.0486 15.589L13.2737 16.4894ZM12.9898 16.6998L12.1937 16.2228L12.194 16.2223L12.9898 16.6998ZM12.9373 17.0493L12.037 17.2744L12.0365 17.2723L12.9373 17.0493ZM13.1482 17.3331L12.6708 18.129L12.67 18.1285L13.1482 17.3331ZM17.7889 20.1171L18.2664 19.3212L18.2664 19.3212L17.7889 20.1171ZM20.2334 20.5574L20.4191 21.4667L20.419 21.4667L20.2334 20.5574ZM22.1275 19.2472L21.3316 18.7699L21.3318 18.7696L22.1275 19.2472ZM21.8748 15.9187L21.7829 14.9952L22.2755 14.9461L22.5906 15.3279L21.8748 15.9187ZM23.3729 19.9936C22.7493 21.0335 21.7271 21.7338 20.5243 21.9795L20.1528 20.1609C20.8704 20.0143 21.4378 19.6113 21.7809 19.0391L23.3729 19.9936ZM20.524 21.9796C19.3354 22.2219 18.0991 21.9954 17.0426 21.3619L17.9971 19.7699C18.673 20.1752 19.4385 20.3065 20.1532 20.1608L20.524 21.9796ZM17.0424 21.3618L12.4017 18.5779L13.3566 16.9861L17.9973 19.77L17.0424 21.3618ZM12.4017 18.5779C11.9653 18.3161 11.6532 17.8959 11.5293 17.4012L13.33 16.9505C13.3325 16.9606 13.336 16.9668 13.3391 16.971C13.3422 16.9752 13.3473 16.9806 13.3566 16.9861L12.4017 18.5779ZM11.529 17.4C11.4061 16.906 11.4839 16.389 11.7452 15.9531L13.3372 16.9076C13.3316 16.9169 13.3296 16.9241 13.3288 16.9295C13.328 16.9348 13.3278 16.9419 13.3303 16.9517L11.529 17.4ZM11.7449 15.9535C11.917 15.6662 12.1522 15.4507 12.4046 15.2996L13.3579 16.8923C13.3466 16.8991 13.3406 16.9043 13.3382 16.9067C13.336 16.9088 13.3364 16.9089 13.3374 16.9072L11.7449 15.9535ZM12.3894 16.883L12.3881 16.8822L13.3719 15.3081L13.3732 15.3089L12.3894 16.883ZM12.4026 16.891C11.9663 16.6293 11.6538 16.2091 11.5303 15.7139L13.3313 15.2648C13.3337 15.2743 13.337 15.2802 13.34 15.2843C13.3431 15.2884 13.3481 15.2937 13.3574 15.2993L12.4026 16.891ZM11.5306 15.715C11.4065 15.2198 11.4845 14.7021 11.746 14.266L13.338 15.2204C13.3323 15.2299 13.3303 15.2371 13.3296 15.2423C13.3288 15.2474 13.3287 15.2542 13.3311 15.2637L11.5306 15.715ZM11.7466 14.265C11.9179 13.98 12.152 13.7591 12.4136 13.6048L13.3569 15.2034C13.3509 15.2069 13.3468 15.2103 13.3441 15.2129C13.3415 15.2154 13.3394 15.218 13.3374 15.2214L11.7466 14.265ZM12.3592 15.1687C11.9843 14.9108 11.7017 14.5255 11.5854 14.0601L13.3861 13.6099C13.3872 13.6143 13.3887 13.6174 13.3911 13.6208C13.3937 13.6245 13.3995 13.6314 13.4112 13.6394L12.3592 15.1687ZM11.5855 14.0605C11.4615 13.5654 11.5394 13.0477 11.8012 12.6115L13.3927 13.5668C13.3872 13.576 13.3852 13.583 13.3845 13.588C13.3837 13.5929 13.3836 13.5998 13.386 13.6095L11.5855 14.0605ZM11.8008 12.6122C12.0627 12.175 12.4835 11.8631 12.9777 11.7396L13.4278 13.5404C13.4179 13.5428 13.4117 13.5463 13.4076 13.5494C13.4035 13.5524 13.3984 13.5573 13.3931 13.5661L11.8008 12.6122ZM12.9768 11.7398C13.1305 11.7012 13.2873 11.682 13.4433 11.682V13.5382C13.4393 13.5382 13.4344 13.5387 13.4287 13.5401L12.9768 11.7398ZM13.4443 11.682C13.7596 11.6824 14.0602 11.7626 14.3265 11.9019L13.466 13.5466C13.4572 13.542 13.4509 13.54 13.4474 13.5391C13.444 13.5382 13.4425 13.5382 13.4423 13.5382L13.4443 11.682ZM12.9692 12.6804C12.9852 12.3428 13.087 11.9902 13.3042 11.677L14.8295 12.7348C14.8322 12.7309 14.8247 12.7387 14.8233 12.7682L12.9692 12.6804ZM13.304 11.6772C13.8919 10.8291 15.0316 10.6309 15.8863 11.1437L14.9313 12.7354C14.9042 12.7192 14.8777 12.7165 14.8569 12.7207C14.8366 12.7247 14.831 12.7326 14.8296 12.7346L13.304 11.6772ZM15.8862 11.1437L19.6864 13.4232L18.7316 15.0149L14.9314 12.7354L15.8862 11.1437ZM18.3976 14.6696L17.9077 13.7873L19.5306 12.8863L20.0204 13.7686L18.3976 14.6696ZM17.9087 13.789C17.5581 13.1607 17.5721 12.3906 17.9414 11.7748L19.5333 12.7294C19.5041 12.7781 19.5043 12.8392 19.5296 12.8846L17.9087 13.789ZM17.9417 11.7744C18.1227 11.4729 18.3797 11.2248 18.685 11.0536L19.5929 12.6726C19.5666 12.6874 19.5462 12.7079 19.533 12.7298L17.9417 11.7744ZM18.6895 11.0511C18.9672 10.8974 19.27 10.8238 19.5684 10.8238V12.68C19.5716 12.68 19.5753 12.6796 19.5792 12.6786C19.5832 12.6776 19.5864 12.6762 19.5884 12.6751L18.6895 11.0511ZM19.5689 10.8238C20.2032 10.8242 20.826 11.1588 21.1586 11.7597L19.5346 12.6586C19.536 12.6613 19.5385 12.6647 19.5419 12.6682C19.5452 12.6715 19.5485 12.6739 19.5515 12.6756C19.5567 12.6786 19.5619 12.68 19.568 12.68L19.5689 10.8238ZM21.1581 11.7588C21.7222 12.7753 22.7844 14.6879 22.8581 14.8198L21.2382 15.726C21.1624 15.5905 20.0979 13.6736 19.5351 12.6595L21.1581 11.7588ZM22.8128 14.7469C22.8259 14.7659 22.8717 14.8316 22.9125 14.8896L21.3941 15.9572C21.3525 15.8981 21.3022 15.8261 21.2835 15.7989L22.8128 14.7469ZM22.9118 14.8887C22.931 14.9159 22.956 14.948 22.993 14.9926L21.5641 16.1774C21.5135 16.1163 21.4539 16.0422 21.3947 15.9582L22.9118 14.8887ZM22.9945 14.9944C24.1924 16.4465 24.3408 18.3805 23.3727 19.9939L21.7811 19.0388C22.343 18.1024 22.2625 17.0239 21.5626 16.1756L22.9945 14.9944ZM22.2774 18.6379L22.2774 18.6379L22.8764 20.3948L22.8763 20.3948L22.2774 18.6379ZM21.159 16.5098C21.1003 16.4387 21.0316 16.3529 20.9648 16.2576L22.4845 15.1918C22.5108 15.2293 22.5445 15.2724 22.5901 15.3277L21.159 16.5098ZM20.966 16.2593C20.9076 16.1764 20.8448 16.0884 20.8031 16.0194C20.7752 15.9732 20.7379 15.9058 20.7064 15.82C20.6757 15.7364 20.662 15.6647 20.6591 15.65L22.4783 15.2816C22.4807 15.2931 22.4715 15.2419 22.4489 15.1803C22.4255 15.1166 22.3999 15.0729 22.392 15.0598C22.3882 15.0535 22.3867 15.0515 22.3897 15.0559C22.3924 15.0601 22.3974 15.0674 22.4057 15.0795C22.423 15.1046 22.4468 15.1384 22.4833 15.1901L20.966 16.2593ZM20.7744 15.9458C20.5971 15.6525 20.1798 14.9007 19.0768 12.9136L20.6997 12.0128C21.8182 14.0279 22.209 14.731 22.363 14.9857L20.7744 15.9458ZM19.0766 12.9133C19.2269 13.1843 19.569 13.284 19.842 13.1332L18.9443 11.5085C19.5699 11.1629 20.3548 11.3908 20.6999 12.0131L19.0766 12.9133ZM19.8464 13.1308C19.9009 13.1003 19.9494 13.0533 19.9819 12.9992L18.3899 12.0447C18.524 11.8209 18.7119 11.6385 18.94 11.5109L19.8464 13.1308ZM19.9818 12.9993C20.0482 12.8885 20.0527 12.7484 19.9866 12.6299L18.3659 13.5347C18.1052 13.0678 18.1176 12.4987 18.39 12.0445L19.9818 12.9993ZM19.9877 12.6319L20.9517 14.3688L19.3287 15.2695L18.3647 13.5327L19.9877 12.6319ZM20.9515 14.3685C21.2128 14.839 21.126 15.4268 20.7387 15.8014L19.4482 14.4672C19.231 14.6773 19.1826 15.0065 19.3288 15.2697L20.9515 14.3685ZM20.74 15.8002C20.3495 16.1793 19.7592 16.2401 19.3021 15.9682L20.2511 14.3729C19.998 14.2224 19.6674 14.2543 19.4469 14.4685L20.74 15.8002ZM19.2991 15.9664L14.6618 13.1845L15.6167 11.5927L20.254 14.3747L19.2991 15.9664ZM14.6621 13.1846C14.7526 13.2389 14.8549 13.2547 14.9509 13.2375C15.0468 13.2203 15.1705 13.1622 15.2604 13.0324L13.7344 11.9757C14.1811 11.3305 15.0305 11.2413 15.6164 11.5925L14.6621 13.1846ZM15.2602 13.0327C15.3327 12.9281 15.3607 12.7883 15.3281 12.657L13.5266 13.1045C13.4291 12.7118 13.5066 12.3043 13.7346 11.9754L15.2602 13.0327ZM15.3277 12.6556C15.2974 12.5341 15.2188 12.4304 15.1156 12.3685L14.1609 13.9604C13.8455 13.7712 13.6171 13.4662 13.527 13.1058L15.3277 12.6556ZM15.0534 12.3344C15.1372 12.3763 15.1989 12.4231 15.238 12.4561C15.2572 12.4723 15.272 12.4863 15.281 12.4949C15.2856 12.4992 15.2892 12.5028 15.2914 12.505C15.2925 12.5061 15.2935 12.507 15.294 12.5076C15.2943 12.5079 15.2945 12.5081 15.2947 12.5082C15.2947 12.5083 15.2948 12.5084 15.2948 12.5084C15.2948 12.5084 15.2949 12.5084 15.2949 12.5085C15.2949 12.5085 15.2949 12.5085 15.2949 12.5085C15.2949 12.5085 15.2949 12.5085 15.2949 12.5085C15.2952 12.5088 15.2935 12.5071 15.2915 12.5051C15.2893 12.503 15.2857 12.4994 15.2812 12.495C15.2723 12.4865 15.2575 12.4726 15.2383 12.4564C15.1994 12.4235 15.1379 12.3769 15.0542 12.335L14.2239 13.9952C14.1401 13.9532 14.0784 13.9065 14.0394 13.8734C14.0202 13.8572 14.0053 13.8433 13.9963 13.8347C13.9918 13.8303 13.9881 13.8267 13.9859 13.8245C13.9848 13.8234 13.9839 13.8225 13.9833 13.8219C13.983 13.8217 13.9828 13.8214 13.9827 13.8213C13.9826 13.8212 13.9825 13.8212 13.9825 13.8211C13.9825 13.8211 13.9825 13.8211 13.9825 13.8211C13.9825 13.8211 13.9824 13.8211 13.9824 13.8211C13.9824 13.8211 13.9824 13.8211 13.9824 13.8211C13.9821 13.8208 13.9838 13.8225 13.9858 13.8244C13.988 13.8266 13.9916 13.8301 13.9962 13.8345C14.0051 13.843 14.0199 13.8569 14.039 13.8731C14.0779 13.906 14.1394 13.9527 14.2231 13.9945L15.0534 12.3344ZM15.1165 12.3692L18.1486 14.1882L17.1937 15.78L14.1616 13.961L15.1165 12.3692ZM18.1489 14.1884C18.7123 14.5268 18.8947 15.2574 18.5568 15.8208L16.9649 14.866C16.776 15.1811 16.8779 15.5903 17.1933 15.7797L18.1489 14.1884ZM18.5562 15.8217C18.2187 16.383 17.489 16.5681 16.9239 16.2288L17.8792 14.6374C17.5627 14.4474 17.1541 14.5515 16.9655 14.8651L18.5562 15.8217ZM16.9241 16.229L13.2016 13.9959L14.1565 12.4042L17.879 14.6372L16.9241 16.229ZM13.2019 13.9961C13.3062 14.0586 13.4347 14.0786 13.556 14.0481L13.1035 12.248C13.4636 12.1575 13.8407 12.2149 14.1562 12.404L13.2019 13.9961ZM13.5543 14.0486C13.6748 14.0185 13.7796 13.9402 13.8424 13.8352L12.2494 12.8824C12.4392 12.5652 12.7453 12.3373 13.1053 12.2475L13.5543 14.0486ZM13.8412 13.8372C13.9049 13.7312 13.9235 13.6031 13.8944 13.4853L12.0925 13.9308C12.0043 13.5743 12.0596 13.1979 12.2506 12.8804L13.8412 13.8372ZM13.8938 13.483C13.8636 13.3621 13.7855 13.2585 13.682 13.1963L12.7263 14.7876C12.4109 14.5981 12.183 14.2929 12.093 13.9332L13.8938 13.483ZM13.6815 13.196L14.4059 13.6305L13.4512 15.2223L12.7268 14.7879L13.6815 13.196ZM14.406 13.6305L17.4039 15.4292L16.449 17.0209L13.451 15.2222L14.406 13.6305ZM17.4043 15.4294C17.9677 15.7677 18.15 16.4984 17.8121 17.0617L16.2202 16.107C16.0313 16.4221 16.1332 16.8313 16.4486 17.0207L17.4043 15.4294ZM17.8115 17.0626C17.4735 17.6248 16.7438 17.808 16.1799 17.4703L17.1337 15.8779C16.8185 15.689 16.4099 15.7916 16.2208 16.1061L17.8115 17.0626ZM16.1794 17.4699L13.1467 15.6504L14.1016 14.0587L17.1343 15.8782L16.1794 17.4699ZM13.1458 15.6499C13.3686 15.7839 13.6545 15.7105 13.7864 15.4908L12.1952 14.5351C12.5895 13.8786 13.4434 13.6628 14.1025 14.0593L13.1458 15.6499ZM13.7864 15.4908C13.8497 15.3855 13.8684 15.2576 13.8393 15.1397L12.0374 15.5852C11.9492 15.2285 12.0047 14.8524 12.1952 14.5351L13.7864 15.4908ZM13.8387 15.1374C13.8083 15.0157 13.7298 14.9125 13.6274 14.8509L12.671 16.4417C12.3565 16.2526 12.1281 15.948 12.0379 15.5875L13.8387 15.1374ZM13.6267 14.8505L14.3702 15.2965L13.4153 16.8882L12.6718 16.4422L13.6267 14.8505ZM14.3703 15.2965L16.6594 16.67L15.7044 18.2617L13.4153 16.8882L14.3703 15.2965ZM16.6597 16.6702C17.2231 17.0085 17.4054 17.7391 17.0675 18.3025L15.4757 17.3478C15.2867 17.6629 15.3887 18.072 15.7041 18.2615L16.6597 16.6702ZM17.067 18.3034C16.73 18.8638 16.0002 19.0508 15.4339 18.7101L16.3908 17.1196C16.0731 16.9284 15.6643 17.0341 15.4763 17.3469L17.067 18.3034ZM15.4348 18.7107L13.1457 17.3372L14.1006 15.7456L16.3898 17.119L15.4348 18.7107ZM13.146 17.3374C13.2505 17.4001 13.3792 17.4197 13.4988 17.3898L13.0486 15.589C13.4083 15.4991 13.7845 15.5561 14.1003 15.7453L13.146 17.3374ZM13.4988 17.3898C13.6182 17.3599 13.7225 17.2826 13.7857 17.1773L12.194 16.2223C12.3841 15.9055 12.6904 15.6786 13.0486 15.589L13.4988 17.3898ZM13.786 17.1768C13.8483 17.0727 13.8677 16.9453 13.8382 16.8262L12.0365 17.2723C11.9479 16.9148 12.0044 16.5388 12.1937 16.2229L13.786 17.1768ZM13.8377 16.8242C13.8073 16.7025 13.7288 16.5993 13.6265 16.5377L12.67 18.1285C12.3555 17.9394 12.1271 17.6348 12.037 17.2744L13.8377 16.8242ZM13.6257 16.5373L18.2664 19.3212L17.3115 20.9129L12.6708 18.129L13.6257 16.5373ZM18.2664 19.3212C18.8304 19.6596 19.4635 19.7673 20.0479 19.648L20.419 21.4667C19.3575 21.6833 18.2536 21.4782 17.3115 20.9129L18.2664 19.3212ZM20.0477 19.648C20.6217 19.5308 21.0659 19.2128 21.3316 18.7699L22.9234 19.7246C22.3751 20.6388 21.4739 21.2513 20.4191 21.4667L20.0477 19.648ZM21.3318 18.7696C21.7863 18.0123 21.7257 17.1959 21.1591 16.5095L22.5906 15.3279C23.6557 16.6182 23.7843 18.2905 22.9233 19.7249L21.3318 18.7696ZM21.9668 16.8422L21.9665 16.8422L21.7826 14.9952L21.7829 14.9952L21.9668 16.8422Z" fill="#4CAF4F" mask="url(#path-5-inside-3_344_718)"/>
</svg>
