<svg width="34" height="23" viewBox="0 0 34 23" fill="none" xmlns="http://www.w3.org/2000/svg">
<mask id="path-1-inside-1_344_729" fill="white">
<path d="M16.8622 15.4775C18.1733 14.3746 19.1135 12.8952 19.5554 11.2399C19.9972 9.58458 19.9194 7.83343 19.3324 6.22385C18.7454 4.61427 17.6777 3.22413 16.2739 2.24188C14.8702 1.25963 13.1984 0.732788 11.4851 0.732788C9.77184 0.732788 8.10001 1.25963 6.69627 2.24188C5.29253 3.22413 4.22479 4.61427 3.63781 6.22385C3.05082 7.83343 2.97299 9.58458 3.41486 11.2399C3.85672 12.8952 4.79692 14.3746 6.10797 15.4775C3.98171 16.4397 2.15202 17.9539 0.809141 19.8627C0.570805 20.2021 0.476804 20.6222 0.547758 21.0308C0.618712 21.4394 0.848827 21.8032 1.18763 22.0423C1.45029 22.2301 1.76531 22.3305 2.08817 22.3294C2.33929 22.3302 2.58684 22.27 2.80961 22.1541C3.03237 22.0381 3.2237 21.8699 3.3672 21.6638C4.28225 20.3605 5.49764 19.2967 6.91063 18.5623C8.32362 17.8279 9.89266 17.4445 11.4851 17.4445C13.0776 17.4445 14.6466 17.8279 16.0596 18.5623C17.4726 19.2967 18.688 20.3605 19.603 21.6638C19.7165 21.8431 19.8652 21.9975 20.0401 22.1176C20.215 22.2377 20.4125 22.321 20.6206 22.3624C20.8287 22.4039 21.043 22.4026 21.2506 22.3587C21.4582 22.3148 21.6547 22.2292 21.8281 22.107C22.0016 21.9849 22.1485 21.8287 22.2598 21.6481C22.3711 21.4675 22.4446 21.2661 22.4757 21.0562C22.5068 20.8464 22.495 20.6324 22.4409 20.4272C22.3868 20.222 22.2916 20.03 22.1611 19.8627C20.8182 17.9539 18.9885 16.4397 16.8622 15.4775ZM6.26459 9.09542C6.26459 8.0629 6.57077 7.05357 7.1444 6.19506C7.71804 5.33655 8.53338 4.66742 9.4873 4.27229C10.4412 3.87716 11.4909 3.77378 12.5036 3.97521C13.5163 4.17665 14.4465 4.67385 15.1766 5.40396C15.9067 6.13406 16.4039 7.06427 16.6053 8.07695C16.8068 9.08963 16.7034 10.1393 16.3082 11.0932C15.9131 12.0472 15.244 12.8625 14.3855 13.4361C13.527 14.0098 12.5176 14.3159 11.4851 14.3159C10.1005 14.3159 8.77268 13.7659 7.79364 12.7869C6.8146 11.8079 6.26459 10.48 6.26459 9.09542ZM32.4194 22.0423C32.1567 22.2301 31.8417 22.3305 31.5189 22.3294C31.2681 22.328 31.0214 22.2669 30.7989 22.1511C30.5765 22.0354 30.3849 21.8683 30.2398 21.6638C29.3228 20.3628 28.1069 19.3009 26.6943 18.5673C25.2817 17.8338 23.7136 17.45 22.1219 17.4483C21.7066 17.4483 21.3082 17.2833 21.0145 16.9895C20.7208 16.6958 20.5558 16.2975 20.5558 15.8821C20.5558 15.4667 20.7208 15.0684 21.0145 14.7747C21.3082 14.481 21.7066 14.3159 22.1219 14.3159C23.5065 14.3159 24.8344 13.7659 25.8134 12.7869C26.7924 11.8079 27.3424 10.48 27.3424 9.09542C27.3424 7.71085 26.7924 6.38299 25.8134 5.40396C24.8344 4.42492 23.5065 3.8749 22.1219 3.8749C21.6452 3.874 21.1708 3.9399 20.7124 4.07067C20.5133 4.13005 20.3044 4.14923 20.0979 4.12711C19.8914 4.10498 19.6913 4.04199 19.5093 3.9418C19.3273 3.84161 19.1671 3.70622 19.038 3.54351C18.9088 3.38081 18.8134 3.19404 18.7571 2.99408C18.7008 2.79412 18.6849 2.58496 18.7103 2.37879C18.7356 2.17262 18.8017 1.97354 18.9047 1.79316C19.0077 1.61278 19.1456 1.45469 19.3103 1.32811C19.475 1.20152 19.6632 1.10896 19.864 1.05582C20.5984 0.84675 21.3584 0.74132 22.1219 0.742589C23.8363 0.73761 25.5106 1.26112 26.9168 2.24184C28.323 3.22256 29.3928 4.61283 29.9806 6.22336C30.5683 7.83389 30.6454 9.58643 30.2013 11.2423C29.7573 12.8983 28.8137 14.3771 27.4991 15.4775C29.6253 16.4397 31.455 17.9539 32.7979 19.8627C32.9176 20.0302 33.0028 20.2198 33.0486 20.4205C33.0944 20.6211 33.0999 20.8289 33.0647 21.0317C33.0294 21.2345 32.9543 21.4283 32.8435 21.6018C32.7327 21.7753 32.5886 21.925 32.4194 22.0423V22.0423Z"/>
</mask>
<path d="M16.8622 15.4775C18.1733 14.3746 19.1135 12.8952 19.5554 11.2399C19.9972 9.58458 19.9194 7.83343 19.3324 6.22385C18.7454 4.61427 17.6777 3.22413 16.2739 2.24188C14.8702 1.25963 13.1984 0.732788 11.4851 0.732788C9.77184 0.732788 8.10001 1.25963 6.69627 2.24188C5.29253 3.22413 4.22479 4.61427 3.63781 6.22385C3.05082 7.83343 2.97299 9.58458 3.41486 11.2399C3.85672 12.8952 4.79692 14.3746 6.10797 15.4775C3.98171 16.4397 2.15202 17.9539 0.809141 19.8627C0.570805 20.2021 0.476804 20.6222 0.547758 21.0308C0.618712 21.4394 0.848827 21.8032 1.18763 22.0423C1.45029 22.2301 1.76531 22.3305 2.08817 22.3294C2.33929 22.3302 2.58684 22.27 2.80961 22.1541C3.03237 22.0381 3.2237 21.8699 3.3672 21.6638C4.28225 20.3605 5.49764 19.2967 6.91063 18.5623C8.32362 17.8279 9.89266 17.4445 11.4851 17.4445C13.0776 17.4445 14.6466 17.8279 16.0596 18.5623C17.4726 19.2967 18.688 20.3605 19.603 21.6638C19.7165 21.8431 19.8652 21.9975 20.0401 22.1176C20.215 22.2377 20.4125 22.321 20.6206 22.3624C20.8287 22.4039 21.043 22.4026 21.2506 22.3587C21.4582 22.3148 21.6547 22.2292 21.8281 22.107C22.0016 21.9849 22.1485 21.8287 22.2598 21.6481C22.3711 21.4675 22.4446 21.2661 22.4757 21.0562C22.5068 20.8464 22.495 20.6324 22.4409 20.4272C22.3868 20.222 22.2916 20.03 22.1611 19.8627C20.8182 17.9539 18.9885 16.4397 16.8622 15.4775ZM6.26459 9.09542C6.26459 8.0629 6.57077 7.05357 7.1444 6.19506C7.71804 5.33655 8.53338 4.66742 9.4873 4.27229C10.4412 3.87716 11.4909 3.77378 12.5036 3.97521C13.5163 4.17665 14.4465 4.67385 15.1766 5.40396C15.9067 6.13406 16.4039 7.06427 16.6053 8.07695C16.8068 9.08963 16.7034 10.1393 16.3082 11.0932C15.9131 12.0472 15.244 12.8625 14.3855 13.4361C13.527 14.0098 12.5176 14.3159 11.4851 14.3159C10.1005 14.3159 8.77268 13.7659 7.79364 12.7869C6.8146 11.8079 6.26459 10.48 6.26459 9.09542ZM32.4194 22.0423C32.1567 22.2301 31.8417 22.3305 31.5189 22.3294C31.2681 22.328 31.0214 22.2669 30.7989 22.1511C30.5765 22.0354 30.3849 21.8683 30.2398 21.6638C29.3228 20.3628 28.1069 19.3009 26.6943 18.5673C25.2817 17.8338 23.7136 17.45 22.1219 17.4483C21.7066 17.4483 21.3082 17.2833 21.0145 16.9895C20.7208 16.6958 20.5558 16.2975 20.5558 15.8821C20.5558 15.4667 20.7208 15.0684 21.0145 14.7747C21.3082 14.481 21.7066 14.3159 22.1219 14.3159C23.5065 14.3159 24.8344 13.7659 25.8134 12.7869C26.7924 11.8079 27.3424 10.48 27.3424 9.09542C27.3424 7.71085 26.7924 6.38299 25.8134 5.40396C24.8344 4.42492 23.5065 3.8749 22.1219 3.8749C21.6452 3.874 21.1708 3.9399 20.7124 4.07067C20.5133 4.13005 20.3044 4.14923 20.0979 4.12711C19.8914 4.10498 19.6913 4.04199 19.5093 3.9418C19.3273 3.84161 19.1671 3.70622 19.038 3.54351C18.9088 3.38081 18.8134 3.19404 18.7571 2.99408C18.7008 2.79412 18.6849 2.58496 18.7103 2.37879C18.7356 2.17262 18.8017 1.97354 18.9047 1.79316C19.0077 1.61278 19.1456 1.45469 19.3103 1.32811C19.475 1.20152 19.6632 1.10896 19.864 1.05582C20.5984 0.84675 21.3584 0.74132 22.1219 0.742589C23.8363 0.73761 25.5106 1.26112 26.9168 2.24184C28.323 3.22256 29.3928 4.61283 29.9806 6.22336C30.5683 7.83389 30.6454 9.58643 30.2013 11.2423C29.7573 12.8983 28.8137 14.3771 27.4991 15.4775C29.6253 16.4397 31.455 17.9539 32.7979 19.8627C32.9176 20.0302 33.0028 20.2198 33.0486 20.4205C33.0944 20.6211 33.0999 20.8289 33.0647 21.0317C33.0294 21.2345 32.9543 21.4283 32.8435 21.6018C32.7327 21.7753 32.5886 21.925 32.4194 22.0423V22.0423Z" fill="#4CAF4F" stroke="#4CAF4F" stroke-width="1.39214" mask="url(#path-1-inside-1_344_729)"/>
</svg>
