<svg width="39" height="34" viewBox="0 0 39 34" fill="none" xmlns="http://www.w3.org/2000/svg">
<g clip-path="url(#clip0_211_2052)">
<path d="M38.5802 13.9504C38.5841 13.9214 38.5841 13.8921 38.5802 13.863C38.5839 13.8394 38.5839 13.8153 38.5802 13.7916L38.2965 11.7502C38.2556 11.506 38.1462 11.2778 37.9806 11.091L37.9319 11.0354L37.8429 10.948L32.9331 6.80181L33.0708 6.93685C32.9581 6.80467 32.8167 6.69895 32.6569 6.62747C32.497 6.55599 32.3228 6.52057 32.1472 6.52381H30.6564C30.414 6.5191 30.1771 6.59466 29.984 6.73827C29.7811 6.59553 29.5369 6.52036 29.2872 6.52381H27.7964C27.6009 6.5207 27.408 6.56827 27.2373 6.66173C27.0666 6.75518 26.9241 6.89119 26.8242 7.05598C26.6702 7.29136 26.6124 7.57496 26.6621 7.85028L26.8485 9.13702C26.725 9.06841 26.5853 9.03281 26.4434 9.03377H19.2246C18.9655 9.03537 18.7125 9.10979 18.4954 9.24822C18.2854 9.37707 18.1168 9.56158 18.0093 9.78039L17.4502 9.31177C17.2302 9.11218 16.9398 9.004 16.64 9.00994H5.31348C5.05356 9.01458 4.79941 9.08577 4.57622 9.21645C4.27087 9.39167 4.0471 9.67655 3.95235 10.0107L0.355083 21.806C0.287869 22.0003 0.281257 22.2099 0.336094 22.408C0.390931 22.606 0.504733 22.7836 0.662961 22.918C0.704191 22.9522 0.747482 22.9841 0.792595 23.0132C0.792595 23.0132 0.719666 22.9656 0.679156 22.9259L5.58897 27.08C5.79666 27.2675 6.06821 27.3723 6.3505 27.3739H17.7662C18.0269 27.3673 18.2812 27.2933 18.5035 27.1594C18.6292 27.0921 18.7416 27.0033 18.8357 26.8973L18.8762 26.8417L18.941 26.7623L18.9896 26.6749L19.5243 27.1277C19.729 27.3077 19.9947 27.4067 20.2697 27.4057H31.7097C31.9701 27.3972 32.2239 27.3234 32.4469 27.1912C32.5698 27.1198 32.6816 27.0315 32.7792 26.9291L32.8196 26.8735L32.8844 26.7941C32.9189 26.7438 32.9488 26.6907 32.9735 26.6352C33 26.5871 33.0217 26.5365 33.0384 26.4843L36.3197 15.7138V15.6184C36.3237 15.5815 36.3237 15.5442 36.3197 15.5072V15.4358C36.3236 15.4121 36.3236 15.3879 36.3197 15.3642C36.3233 15.314 36.3233 15.2636 36.3197 15.2133H37.3729C37.4646 15.2216 37.5568 15.2216 37.6484 15.2133H37.7213C37.7806 15.196 37.8377 15.172 37.8915 15.1419H37.9725L38.1183 15.0307L38.1831 14.983L38.2965 14.84V14.7924L38.3776 14.6573C38.3731 14.6311 38.3731 14.6042 38.3776 14.5779C38.3733 14.565 38.3733 14.5511 38.3776 14.5382C38.3948 14.4916 38.4084 14.4438 38.4181 14.3952C38.4143 14.3795 38.4143 14.3632 38.4181 14.3475C38.4142 14.3239 38.4142 14.2997 38.4181 14.2761C38.4181 14.2761 38.5802 13.9663 38.5802 13.9504Z" fill="black"/>
<path d="M16.972 9.91546C17.015 9.95359 17.045 10.0037 17.0581 10.0591C17.0711 10.1145 17.0665 10.1725 17.0449 10.2252L13.4558 22.0125C13.4106 22.1412 13.3181 22.2488 13.1965 22.3143C13.0975 22.3792 12.983 22.4176 12.8643 22.4255H1.45674C1.35932 22.4209 1.26703 22.3814 1.19748 22.3143C1.1561 22.2768 1.12707 22.228 1.11408 22.1743C1.10109 22.1206 1.10474 22.0642 1.12456 22.0125L4.72183 10.2252C4.76328 10.0949 4.85284 9.98445 4.97299 9.91546C5.07358 9.85523 5.18756 9.8198 5.30517 9.8122H16.7127C16.8094 9.81312 16.902 9.85003 16.972 9.91546ZM11.017 19.6376L13.1641 12.6002H7.15243L5.01349 19.6376H11.017ZM27.861 10.0346C27.8999 10.0789 27.9486 10.1141 28.0033 10.1375C28.058 10.1609 28.1173 10.1719 28.177 10.1696H29.6597C29.7161 10.1702 29.7717 10.1566 29.8214 10.1302C29.871 10.1038 29.9129 10.0654 29.9432 10.0187C29.9695 9.98223 29.9881 9.94093 29.9979 9.89727C30.0076 9.85361 30.0083 9.80848 29.9999 9.76455L29.7083 7.66762C29.6805 7.57057 29.6306 7.48096 29.5625 7.4055C29.5235 7.36116 29.4749 7.326 29.4202 7.30262C29.3655 7.27924 29.3061 7.26826 29.2465 7.27048H27.7638C27.7073 7.26994 27.6517 7.28351 27.6021 7.30992C27.5524 7.33632 27.5105 7.37469 27.4802 7.4214C27.4235 7.53259 27.3992 7.60408 27.4235 7.66762L27.7233 9.76455C27.7387 9.86665 27.7869 9.96126 27.861 10.0346ZM32.5683 7.65174C32.5405 7.55468 32.4906 7.46507 32.4224 7.38962C32.3851 7.34544 32.3379 7.31028 32.2845 7.28686C32.2312 7.26345 32.173 7.2524 32.1145 7.25459H30.6238C30.5683 7.25304 30.5133 7.26625 30.4648 7.29281C30.4163 7.31938 30.3761 7.35833 30.3483 7.4055C30.2944 7.47597 30.2711 7.56449 30.2835 7.65174L30.5833 9.74866C30.6021 9.84968 30.6498 9.94336 30.721 10.0187C30.7606 10.0622 30.8094 10.0968 30.8639 10.1201C30.9185 10.1434 30.9775 10.1549 31.037 10.1537H32.5277C32.5832 10.1545 32.6377 10.1409 32.686 10.1144C32.7344 10.0879 32.7748 10.0495 32.8032 10.0028C32.8314 9.9673 32.8511 9.92601 32.8609 9.88204C32.8708 9.83806 32.8704 9.79249 32.8599 9.74866L32.5683 7.65174ZM26.5566 10.8289L26.4107 9.79632H19.2243C19.1115 9.80241 19.0023 9.83807 18.9083 9.89957C18.8487 9.93147 18.7967 9.97569 18.7562 10.0292C18.7156 10.0827 18.6874 10.1441 18.6734 10.2093L18.0739 12.1792C18.0499 12.2284 18.0417 12.2836 18.0504 12.3375C18.0591 12.3914 18.0842 12.4414 18.1224 12.481C18.1908 12.544 18.2799 12.5807 18.3736 12.5843H27.1076L24.9605 19.6217H16.2509C16.1386 19.6242 16.0292 19.6572 15.935 19.717C15.8204 19.7883 15.7367 19.8987 15.7 20.0268L15.0923 21.9966C15.0725 22.0472 15.0673 22.1021 15.0773 22.1553C15.0873 22.2086 15.1121 22.2581 15.149 22.2984C15.2152 22.3656 15.3051 22.4054 15.4002 22.4096H26.8402C26.9585 22.3996 27.0725 22.3615 27.1723 22.2984C27.292 22.2325 27.3817 22.1247 27.4235 21.9966L30.7129 11.226H27.0103C26.9516 11.2272 26.8932 11.2165 26.8389 11.1946C26.7845 11.1728 26.7354 11.1402 26.6944 11.0989C26.6274 11.0269 26.58 10.9395 26.5566 10.8448V10.8289Z" fill="white"/>
</g>
<defs>
<clipPath id="clip0_211_2052">
<rect width="38.2838" height="20.8821" fill="white" transform="translate(0.299316 6.52361)"/>
</clipPath>
</defs>
</svg>
