<svg width="28" height="28" viewBox="0 0 28 28" fill="none" xmlns="http://www.w3.org/2000/svg">
<g clip-path="url(#clip0_211_2047)">
<path fill-rule="evenodd" clip-rule="evenodd" d="M6.97876 0.149902C10.823 0.149902 13.9395 3.26631 13.9395 7.1106V0.149902H20.9002C24.7444 0.149902 27.8608 3.26631 27.8608 7.1106C27.8608 10.9548 24.7444 14.0713 20.9002 14.0713C24.7444 14.0713 27.8608 17.1877 27.8608 21.032C27.8608 22.9408 27.0925 24.6702 25.8482 25.9277L25.8221 25.954L25.799 25.9769C24.5412 27.223 22.8106 27.9927 20.9002 27.9927C19.0027 27.9927 17.2826 27.2335 16.027 26.0023C16.0107 25.9863 15.9944 25.9701 15.9782 25.954C15.9629 25.9387 15.9478 25.9234 15.9327 25.908C14.6998 24.6522 13.9395 22.9309 13.9395 21.032C13.9395 24.8762 10.823 27.9927 6.97876 27.9927C3.13447 27.9927 0.0180664 24.8762 0.0180664 21.032V14.0713H6.97876C3.13447 14.0713 0.0180664 10.9548 0.0180664 7.1106C0.0180664 3.26631 3.13447 0.149902 6.97876 0.149902ZM12.5473 7.1106C12.5473 10.186 10.0542 12.6792 6.97876 12.6792V1.54204C10.0542 1.54204 12.5473 4.03517 12.5473 7.1106ZM26.4687 21.032C26.4687 17.9565 23.9756 15.4634 20.9002 15.4634C17.8247 15.4634 15.3316 17.9565 15.3316 21.032H26.4687ZM1.41021 15.4634V21.032C1.41021 24.1074 3.90333 26.6005 6.97876 26.6005C10.0542 26.6005 12.5473 24.1074 12.5473 21.032V15.4634H1.41021ZM15.3316 12.6792V1.54204H20.9002C23.9756 1.54204 26.4687 4.03517 26.4687 7.1106C26.4687 10.186 23.9756 12.6792 20.9002 12.6792H15.3316Z" fill="#263238"/>
</g>
<defs>
<clipPath id="clip0_211_2047">
<rect width="27.8428" height="27.8428" fill="white" transform="translate(0.0180664 0.149902)"/>
</clipPath>
</defs>
</svg>
