<svg width="34" height="34" viewBox="0 0 34 34" fill="none" xmlns="http://www.w3.org/2000/svg">
<g clip-path="url(#clip0_211_2049)">
<path fill-rule="evenodd" clip-rule="evenodd" d="M10.0455 10.0837L3.09473 16.9647C4.48501 18.341 6.0732 19.5009 7.80478 20.4084C8.2834 21.6652 9.03361 22.8439 10.0554 23.8554C13.8997 27.661 20.1326 27.661 23.9768 23.8554C24.9986 22.8439 25.7489 21.6652 26.2275 20.4083C27.959 19.5009 29.5472 18.341 30.9375 16.9647L23.9923 10.0893C23.9872 10.0842 23.982 10.079 23.9768 10.0739C20.1326 6.26827 13.8997 6.26827 10.0554 10.0739C10.0521 10.0772 10.0488 10.0805 10.0455 10.0837ZM23.3117 21.6498C21.2862 22.3265 19.1598 22.6731 17.0161 22.6731C14.8724 22.6731 12.7461 22.3265 10.7206 21.6498C10.9401 21.9381 11.1824 22.2147 11.4476 22.4772C14.523 25.5218 19.5092 25.5218 22.5847 22.4772C22.8499 22.2147 23.0922 21.9381 23.3117 21.6498ZM11.5903 11.3142C12.1126 11.6558 12.6679 11.9481 13.249 12.1864C14.4433 12.6761 15.7234 12.9282 17.0161 12.9282C18.3089 12.9282 19.5889 12.6761 20.7832 12.1864C21.3643 11.9481 21.9196 11.6558 22.442 11.3142C19.4049 8.45348 14.6273 8.45349 11.5903 11.3142Z" fill="#3B4158"/>
</g>
<defs>
<clipPath id="clip0_211_2049">
<rect width="27.8428" height="19.4899" fill="white" transform="translate(3.09473 7.21968)"/>
</clipPath>
</defs>
</svg>
