<svg width="34" height="34" viewBox="0 0 34 34" fill="none" xmlns="http://www.w3.org/2000/svg">
<g clip-path="url(#clip0_211_2056)">
<path d="M31.7852 9.70096C31.7852 9.72449 31.7852 9.75391 31.779 9.77157C31.7484 10.001 31.7484 10.2305 31.7667 10.4659C31.779 10.5247 31.7913 10.5836 31.8403 10.6307C31.92 10.7189 32.0426 10.7013 32.0917 10.5954C32.1162 10.5424 32.1162 10.4894 32.1039 10.4365C32.0426 10.2129 32.0304 9.97751 32.0243 9.74803C32.0243 9.73626 32.0243 9.7186 32.0243 9.70096C32.0917 9.69507 32.153 9.68918 32.2082 9.68918C32.2511 9.6833 32.2879 9.67742 32.3186 9.65976C32.4105 9.61269 32.4105 9.51266 32.3124 9.46559C32.2756 9.44793 32.2266 9.44205 32.1837 9.44205C32.0304 9.44793 31.8771 9.44793 31.7238 9.44793C31.6687 9.44793 31.6135 9.45382 31.5583 9.4597C31.5276 9.46559 31.4909 9.46559 31.4664 9.48324C31.4234 9.50089 31.3989 9.53031 31.3989 9.5715C31.405 9.61269 31.4234 9.63623 31.4664 9.65388C31.4909 9.67153 31.5215 9.67742 31.5522 9.67742C31.6257 9.6833 31.7055 9.69507 31.7852 9.70096ZM33.4711 9.97163C33.4711 9.97751 33.4772 9.98339 33.4772 9.98339C33.5018 10.1423 33.5263 10.2953 33.5447 10.4482C33.5508 10.5012 33.557 10.5483 33.5937 10.5895C33.6734 10.6895 33.7961 10.6777 33.8512 10.5718C33.8758 10.5189 33.8819 10.4659 33.8696 10.4071C33.8328 10.2305 33.8144 10.054 33.7777 9.88336C33.7531 9.77745 33.7225 9.67742 33.6918 9.58327C33.6734 9.52443 33.6305 9.48324 33.557 9.47735C33.4834 9.46559 33.4282 9.50089 33.3975 9.55385C33.3608 9.60092 33.3301 9.64799 33.3056 9.70096C33.2627 9.7951 33.2259 9.88925 33.1769 9.97751C33.1707 10.001 33.1646 10.0187 33.1523 10.0364C33.1462 10.0246 33.1401 10.0187 33.1401 10.0187C33.0603 9.8716 32.9868 9.72449 32.9071 9.58327C32.8948 9.5715 32.8887 9.55973 32.8826 9.54796C32.8458 9.49501 32.8029 9.46559 32.7354 9.46559C32.6741 9.47147 32.625 9.50678 32.5944 9.55973C32.5821 9.58327 32.5821 9.60092 32.576 9.62446C32.5515 9.81275 32.5208 10.001 32.4963 10.1893C32.484 10.2953 32.4779 10.4012 32.4779 10.5071C32.4718 10.5306 32.4779 10.56 32.4902 10.5836C32.5025 10.6307 32.5392 10.6601 32.5883 10.666C32.6496 10.6718 32.6925 10.6542 32.7109 10.6071C32.7293 10.5718 32.7354 10.5424 32.7416 10.513C32.7661 10.4071 32.7845 10.307 32.8029 10.207C32.8151 10.1482 32.8212 10.1011 32.8397 10.0364C32.8519 10.0599 32.8641 10.0775 32.8764 10.0952C32.9316 10.1658 32.9868 10.2364 33.0542 10.2953C33.1217 10.3423 33.1769 10.3364 33.232 10.2835C33.2443 10.2717 33.2504 10.2658 33.2627 10.2541C33.3179 10.1717 33.3853 10.0893 33.4405 10.0069C33.4527 9.99516 33.4589 9.98339 33.4711 9.97163Z" fill="#3A3B7B"/>
<path d="M19.3447 9.81656C19.3021 9.92838 19.294 10.0089 19.3136 10.0759C19.3354 10.167 19.3918 10.1968 19.4683 10.1736C20.1884 10.0027 21.7675 10.4878 22.3521 10.623C22.49 10.6514 22.6022 10.4806 22.5081 10.3274C22.3708 10.1791 20.7924 9.54409 20.1902 9.50947C19.9541 9.49667 19.5321 9.43857 19.3447 9.81656Z" fill="#3A3B7B"/>
<path d="M25.516 7.76094C25.5928 7.80346 25.6357 7.84401 25.6568 7.88933C25.6884 7.94876 25.6717 7.98989 25.6187 8.01087C25.1427 8.23385 24.5093 9.19379 24.2536 9.52486C24.1917 9.60102 24.0487 9.55676 24.0271 9.43152C24.0315 9.2899 24.593 8.24815 24.9064 7.96442C25.0295 7.85364 25.233 7.63627 25.516 7.76094Z" fill="#3A3B7B"/>
<path d="M21.7255 7.28839C21.8177 7.22169 21.9135 7.19832 21.9624 7.24166C22.6806 7.83116 23.0615 8.76469 23.2973 9.61931C23.3062 9.63922 23.3067 9.66779 23.2996 9.6976C23.2967 9.72308 23.2773 9.74999 23.2465 9.77081C23.2136 9.7938 23.1853 9.8008 23.1719 9.78099C22.8572 9.37008 21.0594 7.7713 21.7255 7.28839Z" fill="#3A3B7B"/>
<path d="M6.51682 17.5088C6.68895 17.3858 6.87608 17.2834 7.07411 17.204C7.28129 17.1471 7.50211 17.1565 7.70322 17.2309C7.90428 17.3052 8.07473 17.4403 8.18867 17.6158C8.2906 17.7909 8.33046 17.993 8.30233 18.1918C8.27419 18.3905 8.17955 18.575 8.03262 18.7176C7.91872 18.8333 7.7894 18.934 7.64812 19.0172C7.0184 19.4076 6.38307 19.7767 5.74777 20.1671C5.61777 20.2649 5.47987 20.3525 5.33537 20.4292C5.11559 20.5344 4.86441 20.5626 4.62526 20.5089C4.38613 20.4552 4.17407 20.3229 4.02575 20.1351C3.91488 20.002 3.82131 19.8566 3.74711 19.7018C3.14524 18.4877 2.52108 17.2788 1.94151 16.0433C1.67401 15.5084 1.45667 14.8933 1.2449 14.2996C1.15328 14.1271 1.13539 13.9271 1.19503 13.7422C1.25468 13.5572 1.38716 13.4018 1.56429 13.3092C1.74143 13.2165 1.94924 13.1938 2.14353 13.246C2.33782 13.2981 2.50326 13.4209 2.60467 13.5882C2.91638 13.9858 3.1923 14.4081 3.42946 14.8506C4.03132 15.9203 4.60533 16.99 5.18491 18.0277C5.21865 18.085 5.25587 18.1403 5.29636 18.1935C5.73259 18.0174 6.14289 17.7873 6.51682 17.5088Z" fill="#3A3B7B"/>
<path d="M12.7398 17.1357C11.3634 18.6814 9.05619 18.291 7.89704 16.3013C7.07224 14.8892 6.92736 12.5572 8.72184 11.0863C9.10503 10.7783 9.56323 10.5686 10.0537 10.4765C10.6551 10.3938 11.2684 10.4956 11.8059 10.7675C12.3433 11.0393 12.7775 11.4673 13.0464 11.9902C14.0272 13.7018 13.8879 15.8841 12.7398 17.1357ZM12.1826 13.5306C12.0363 13.11 11.743 12.751 11.3522 12.5144C11.1311 12.3631 10.8624 12.2896 10.5914 12.3061C10.3204 12.3227 10.0636 12.4284 9.86426 12.6053C9.06736 13.2846 8.90014 14.8946 9.47971 15.852C9.5536 16.0081 9.66208 16.1468 9.79766 16.2585C9.93324 16.3702 10.0926 16.4521 10.2646 16.4984C10.4366 16.5448 10.617 16.5545 10.7934 16.5269C10.9697 16.4993 11.1376 16.4351 11.2854 16.3387C11.7173 16.0172 12.0343 15.5746 12.192 15.0724C12.3499 14.57 12.3407 14.0331 12.1659 13.536L12.1826 13.5306Z" fill="#3A3B7B"/>
<path d="M18.3572 14.2046C18.2163 14.2337 18.0707 14.2354 17.929 14.2097C17.7874 14.1839 17.6525 14.1313 17.5324 14.0548C17.4273 13.9971 17.3368 13.9178 17.2675 13.8225C17.1982 13.7272 17.1517 13.6184 17.1315 13.5038C17.1112 13.3892 17.1177 13.2718 17.1504 13.1599C17.1831 13.048 17.2413 12.9445 17.3207 12.8567C17.459 12.6803 17.6554 12.5541 17.8779 12.4984C18.459 12.3365 19.0572 12.2378 19.6613 12.2042C19.794 12.1894 19.9284 12.2001 20.0567 12.2359C20.1851 12.2717 20.3046 12.3316 20.4085 12.4124C20.5123 12.4931 20.5983 12.5929 20.6614 12.7059C20.7244 12.819 20.7633 12.943 20.7758 13.0707C20.95 13.6978 20.969 14.3554 20.8315 14.9909C20.33 17.0447 18.6024 17.7508 16.663 17.0929C16.1187 16.917 15.6413 16.5892 15.2921 16.1515C14.8264 15.6244 14.4961 14.9997 14.328 14.3276C14.1918 13.7291 14.2067 13.1082 14.3716 12.5164C14.5364 11.9246 14.8463 11.3792 15.2754 10.9258C15.6827 10.433 16.2112 10.0452 16.8135 9.79726C17.1941 9.59593 17.6395 9.53868 18.0619 9.6368C18.1577 9.66225 18.2446 9.71185 18.3138 9.78044C18.3829 9.84903 18.4316 9.93412 18.4549 10.0269C18.4783 10.1197 18.4753 10.2167 18.4463 10.308C18.4174 10.3993 18.3635 10.4815 18.2903 10.5461C18.1512 10.667 18 10.7745 17.8389 10.867C17.3435 11.1698 16.9123 11.56 16.5683 12.017C16.3428 12.3126 16.1875 12.6522 16.1134 13.0116C16.0392 13.3711 16.048 13.7418 16.1392 14.0976C16.2656 14.5828 16.5461 15.0183 16.9417 15.3438C18.1677 16.4136 19.7615 15.3813 19.4829 13.9211C19.0761 14.0174 18.7194 14.119 18.3572 14.2046Z" fill="#3A3B7B"/>
<path d="M25.8472 17.2212C24.036 18.291 21.974 17.2212 21.5226 14.9748C21.1938 13.3702 21.818 11.1237 24.0026 10.2679C24.4674 10.0898 24.9715 10.0272 25.4682 10.0861C26.065 10.1909 26.6125 10.4729 27.0334 10.8923C27.4543 11.3116 27.7275 11.8472 27.8144 12.4235C28.1822 14.3329 27.3463 16.3708 25.8472 17.2212ZM26.4769 13.6216C26.4764 13.1772 26.3126 12.7473 26.0144 12.4074C25.855 12.1972 25.6245 12.0466 25.3623 11.9812C25.1001 11.9159 24.8224 11.9398 24.5765 12.0491C23.5957 12.4555 22.9047 13.9318 23.1555 15.0176C23.1747 15.188 23.2323 15.3523 23.3245 15.4991C23.4167 15.6459 23.5412 15.7715 23.6894 15.8673C23.8374 15.9631 24.0055 16.0266 24.1819 16.0536C24.3582 16.0805 24.5386 16.0701 24.7103 16.0231C25.2287 15.8493 25.6776 15.5245 25.9943 15.0939C26.3111 14.6633 26.4798 14.1486 26.4769 13.6216Z" fill="#3A3B7B"/>
<path d="M29.646 17.6706C29.6187 17.8663 29.5115 18.0436 29.3479 18.1635C29.1843 18.2833 28.9779 18.336 28.7739 18.3097C28.5699 18.2835 28.3852 18.1805 28.2603 18.0235C28.1354 17.8666 28.0806 17.6684 28.108 17.4727C28.1353 17.2769 28.2426 17.0996 28.4061 16.9797C28.5697 16.8598 28.7761 16.8072 28.9801 16.8335C29.1841 16.8597 29.3688 16.9626 29.4937 17.1196C29.6186 17.2766 29.6734 17.4748 29.646 17.6706ZM29.1612 10.4552C29.2672 10.2998 29.4227 10.1815 29.6045 10.1179C29.7863 10.0542 29.9846 10.0487 30.1699 10.1021C30.3583 10.1474 30.5247 10.2534 30.6414 10.4023C30.7581 10.5513 30.8179 10.7342 30.8108 10.9205C30.7862 11.2192 30.7397 11.5159 30.6715 11.8084C30.4876 12.7979 30.3092 13.7874 30.1142 14.7662C30.025 15.1567 29.908 15.5311 29.7798 15.9269C29.7352 16.0506 29.6607 16.1624 29.5625 16.2531C29.5014 16.3214 29.4234 16.3738 29.3356 16.4054C29.2479 16.437 29.1532 16.4469 29.0604 16.4341C28.9677 16.4213 28.8797 16.3862 28.8048 16.3322C28.7299 16.2781 28.6704 16.2068 28.6318 16.1248C28.5656 15.9777 28.5296 15.8196 28.5259 15.6594C28.5259 14.9962 28.5259 14.3276 28.5705 13.659C28.6463 12.7049 28.7953 11.7573 29.0163 10.8242C29.0424 10.6992 29.0914 10.5796 29.1612 10.4712V10.4552Z" fill="#3A3B7B"/>
<path fill-rule="evenodd" clip-rule="evenodd" d="M4.16219 21.9687C4.09639 22.1097 4.07834 22.2668 4.1105 22.4181C4.13189 22.6175 4.17887 22.8136 4.25038 23.002C4.33966 23.2326 4.43955 23.4607 4.56273 23.7419C4.59106 23.8066 4.62066 23.8741 4.65164 23.9452C4.81775 24.326 5.02617 24.8128 5.30418 25.5172C5.38287 25.7174 5.45275 25.9191 5.52311 26.1223C5.55154 26.2043 5.58006 26.2867 5.60926 26.3692C5.71393 26.6627 5.89404 26.9263 6.13276 27.1352C6.23414 27.25 6.3686 27.3337 6.51937 27.3755C6.67308 27.4182 6.83656 27.4155 6.98864 27.3678C7.14072 27.32 7.27429 27.2295 7.37202 27.1079C7.46783 26.9886 7.5248 26.8449 7.53588 26.6948C7.59803 26.4024 7.57682 26.0992 7.47437 25.8173C7.31178 25.3492 7.12656 24.8804 6.91298 24.4219L6.912 24.4199C6.56063 23.7026 6.20348 22.9902 5.82942 22.2775L5.82662 22.2725C5.71712 22.0869 5.57481 21.9209 5.40609 21.782C5.29656 21.6581 5.14548 21.5745 4.97863 21.5457C4.80823 21.5163 4.63248 21.546 4.48277 21.6294C4.34114 21.707 4.22887 21.8258 4.16219 21.9687Z" fill="#3A3B7B"/>
<path fill-rule="evenodd" clip-rule="evenodd" d="M9.52871 20.2023C8.97778 20.0653 8.40242 20.0454 7.8427 20.1438C7.40918 20.1848 6.98281 20.2808 6.68673 20.4709C6.53615 20.5676 6.4144 20.6919 6.34668 20.8498C6.27859 21.0086 6.26989 21.1902 6.3257 21.3925C6.42758 21.7631 6.55989 22.1234 6.69173 22.4826L6.71309 22.5407L6.71361 22.542C7.11058 23.5855 7.51135 24.6254 7.91575 25.6617C7.96291 25.825 8.0296 25.9825 8.11447 26.1311L8.11606 26.1339C8.22818 26.3185 8.37199 26.4836 8.54141 26.6223C8.62614 26.6986 8.73092 26.7513 8.84454 26.7749C8.95928 26.7987 9.07859 26.7918 9.1895 26.7549C9.30045 26.7181 9.39869 26.6527 9.47356 26.5659C9.54722 26.4805 9.59545 26.3776 9.61316 26.2682C9.68626 25.9708 9.66284 25.6591 9.546 25.3748C9.50955 25.2792 9.48094 25.1814 9.4508 25.0785C9.44075 25.0442 9.43056 25.0093 9.41981 24.9737C10.3455 24.6264 11.3305 24.1594 11.6768 23.0731C11.8125 22.6976 11.8238 22.2911 11.7092 21.9092C11.5945 21.5269 11.3592 21.1881 11.0357 20.9393C10.5954 20.5911 10.081 20.3395 9.52871 20.2023ZM8.00161 21.5348C8.01983 21.5297 8.0382 21.5251 8.05662 21.5207C8.65928 21.4298 9.27587 21.5509 9.79286 21.8618C10.0207 22.0139 10.114 22.1829 10.1301 22.3454C10.1466 22.5128 10.0832 22.6942 9.95578 22.8686C9.71505 23.198 9.27573 23.4617 8.87889 23.5108C8.58959 22.8714 8.29581 22.2061 8.00161 21.5348Z" fill="#3A3B7B"/>
<path d="M13.2016 19.0318C13.8577 18.741 14.6704 18.6908 15.3064 18.8952C15.4665 18.94 15.6055 19.0369 15.6995 19.1692C15.7928 19.3008 15.8359 19.4593 15.8215 19.6177C15.8206 19.7206 15.7943 19.8218 15.7448 19.9131C15.6944 20.006 15.6215 20.0859 15.5321 20.1461C15.4427 20.2063 15.3396 20.245 15.2314 20.2588C15.1232 20.2726 15.0131 20.2612 14.9104 20.2256L14.9026 20.2229L14.8953 20.2192C14.8427 20.1928 14.7869 20.1729 14.7292 20.16L14.7256 20.1592C14.2782 20.0452 13.8562 20.2341 13.7021 20.4663C13.6286 20.577 13.6195 20.6888 13.6807 20.7904C13.7463 20.8993 13.9071 21.0215 14.2325 21.1086C14.322 21.1321 14.4137 21.1549 14.5068 21.178C14.7641 21.242 15.0316 21.3084 15.2901 21.4005L15.2911 21.4008C16.4841 21.8365 16.9283 22.7388 16.7763 23.5874C16.6258 24.4266 15.8956 25.1904 14.7974 25.3706C14.3978 25.4556 13.982 25.439 13.591 25.3225C13.1991 25.2057 12.8458 24.9925 12.5663 24.704L12.559 24.6965C12.4707 24.5878 12.4114 24.4601 12.3851 24.3246C12.3609 24.2024 12.3736 24.076 12.4218 23.9605C12.4696 23.8456 12.5506 23.7462 12.655 23.6737C12.7654 23.5916 12.8984 23.5423 13.0376 23.5321C13.1764 23.5218 13.3152 23.5508 13.4371 23.6153C13.5588 23.6717 13.672 23.7437 13.7736 23.8293L13.7755 23.8309C13.9552 23.9886 14.1727 24.0297 14.3812 23.9917C14.5928 23.953 14.7917 23.8329 14.9197 23.6735C15.0468 23.515 15.0979 23.3269 15.0373 23.1442C14.9764 22.9602 14.7931 22.754 14.3905 22.5816C14.2852 22.5387 14.1761 22.5041 14.0626 22.4705C14.032 22.4614 14.0008 22.4523 13.9693 22.4432C13.8854 22.4187 13.799 22.3935 13.7143 22.3658C13.656 22.3467 13.5982 22.3286 13.5409 22.3107C13.3842 22.2617 13.2316 22.214 13.0846 22.15C12.7648 22.0455 12.4885 21.8448 12.2968 21.5777C12.1044 21.3095 12.0075 20.9888 12.0207 20.6634C12.0217 19.8705 12.5421 19.3242 13.2016 19.0318Z" fill="#3A3B7B"/>
<path d="M21.5196 18.9474C21.3923 18.8877 21.2517 18.8594 21.1102 18.865C20.9688 18.8706 20.831 18.9099 20.7093 18.9794C20.5884 19.0484 20.4872 19.145 20.4147 19.2606C20.3482 19.358 20.3021 19.4669 20.2792 19.5813C20.2562 19.6956 20.2568 19.813 20.2808 19.927C20.3045 20.0736 20.3307 20.2161 20.3567 20.3566C20.3996 20.5891 20.4414 20.8165 20.469 21.0482L20.47 21.0541C20.5328 21.4176 20.5656 21.7852 20.5686 22.1536L20.5689 22.1588C20.5903 22.5567 20.4491 22.9468 20.1754 23.2464L20.1711 23.2517C20.082 23.3612 19.963 23.4448 19.8272 23.4931C19.6915 23.5414 19.5445 23.5525 19.4026 23.5252C19.2606 23.4978 19.1294 23.4331 19.0236 23.3383C18.9178 23.2435 18.8415 23.1219 18.8034 22.9879C18.7221 22.7054 18.675 22.4149 18.663 22.1221L18.8019 19.9997C18.804 19.972 18.8063 19.9435 18.8087 19.9148C18.814 19.8503 18.8194 19.7847 18.8217 19.7234C18.8249 19.6333 18.8221 19.5407 18.8003 19.453C18.7779 19.3633 18.7353 19.278 18.6598 19.2054C18.585 19.1335 18.484 19.0805 18.357 19.0444C18.1273 18.9806 17.9331 18.9826 17.7712 19.0485C17.6093 19.1144 17.4983 19.2368 17.4198 19.3782C17.3419 19.5184 17.2919 19.6844 17.254 19.8507C17.2259 19.974 17.2033 20.1035 17.1819 20.2268C17.1745 20.2693 17.1672 20.311 17.1599 20.3515L17.1597 20.3527C17.0449 21.0287 17.0107 21.7152 17.0578 22.3986C17.0666 22.768 17.1469 23.1326 17.2946 23.4738C17.4612 23.914 17.763 24.2954 18.1601 24.5677C18.558 24.8406 19.0329 24.9909 19.5219 24.9988C20.0108 25.0068 20.4908 24.8719 20.8981 24.6122C21.3048 24.3529 21.62 23.9812 21.802 23.5463C22.0566 22.9923 22.1761 22.3899 22.1514 21.7848C22.1365 21.3431 22.1114 20.898 22.0865 20.4552C22.0743 20.238 22.0621 20.0212 22.0511 19.8057C22.0456 19.5897 21.9714 19.3805 21.8384 19.2061C21.7561 19.0958 21.6465 19.0069 21.5196 18.9474Z" fill="#3A3B7B"/>
<path d="M26.0222 22.2754C26.0093 22.2911 25.9957 22.3074 25.9815 22.3243C25.878 21.7514 25.7821 21.1787 25.6861 20.6051C25.6516 20.3993 25.617 20.1926 25.5822 19.9865L25.5782 19.9635L25.5655 19.9436C25.5415 19.9063 25.5392 19.8696 25.5392 19.7914V19.7824L25.5377 19.7734C25.5117 19.612 25.4356 19.4618 25.3194 19.3424C25.2035 19.2233 25.053 19.1405 24.8874 19.1045C24.7221 19.0654 24.5484 19.074 24.3881 19.1293C24.2283 19.1845 24.0889 19.2837 23.9875 19.4145C23.9032 19.5148 23.8341 19.6261 23.7823 19.745C23.6648 20.0012 23.5462 20.258 23.4273 20.5155L23.4252 20.52C23.1284 21.1628 22.8296 21.81 22.5395 22.4623L22.5386 22.4644C22.3605 22.8874 22.2134 23.333 22.0669 23.7773C22.0376 23.866 22.0084 23.9546 21.9789 24.043C21.926 24.1832 21.9029 24.3321 21.9108 24.481C21.9012 24.6143 21.9344 24.7472 22.0061 24.8619C22.0792 24.9789 22.1887 25.0709 22.3191 25.1251C22.4574 25.1832 22.6119 25.1956 22.7584 25.1602C22.9045 25.1248 23.0342 25.0439 23.1272 24.9301C23.2459 24.7899 23.348 24.6371 23.4313 24.4751C23.6771 23.9926 23.912 23.5042 24.1458 23.0179C24.2363 22.8298 24.3242 22.6613 24.4242 22.4779C24.4311 22.5005 24.4381 22.5225 24.4453 22.5447C24.5501 22.9876 24.7271 23.4119 24.9696 23.8019C25.0155 23.8846 25.0794 23.9568 25.157 24.0136C25.2355 24.0711 25.3261 24.1115 25.4226 24.132C25.519 24.1525 25.6189 24.1526 25.7154 24.1323C25.8117 24.112 25.9026 24.0716 25.9811 24.0143L26.1366 23.9026L27.3435 22.927L27.2721 23.3635C27.1742 23.9635 27.077 24.5585 26.9737 25.1537C26.9061 25.4175 26.9062 25.693 26.974 25.9567C27.0033 26.1052 27.0781 26.2418 27.1888 26.3492C27.3004 26.4575 27.4433 26.5311 27.599 26.5605C27.7547 26.5898 27.9161 26.5736 28.062 26.5138C28.2059 26.4549 28.3282 26.3565 28.4138 26.231C28.6128 25.994 28.7366 25.7072 28.7706 25.4045C28.8219 24.9771 28.8797 24.5439 28.9376 24.1108C29.0043 23.6116 29.071 23.1126 29.1273 22.6231L29.1275 22.6216C29.1817 22.0858 29.2079 21.5478 29.2061 21.0095C29.218 20.8394 29.1739 20.6699 29.0798 20.5251C28.9855 20.3797 28.8457 20.2667 28.6806 20.2021C28.5088 20.1271 28.3165 20.1071 28.1319 20.145C27.9486 20.1826 27.7826 20.2753 27.6581 20.4097C27.4355 20.6073 27.2267 20.8188 27.0329 21.0427L27.0316 21.0442C26.8202 21.2971 26.6101 21.555 26.4014 21.8112C26.2746 21.967 26.148 22.1224 26.0222 22.2754Z" fill="#3A3B7B"/>
</g>
<defs>
<clipPath id="clip0_211_2056">
<rect width="32.7153" height="20.186" fill="white" transform="translate(1.1604 7.21968)"/>
</clipPath>
</defs>
</svg>
