<svg width="46" height="40" viewBox="0 0 46 40" fill="none" xmlns="http://www.w3.org/2000/svg">
<path d="M45.6658 26.8834C45.6658 33.8031 40.0562 39.4127 33.1365 39.4127L14.3426 39.4127C12.4205 39.4127 10.8623 37.8545 10.8623 35.9323L10.8623 12.2659C10.8623 8.42166 13.9787 5.30525 17.823 5.30525L42.1854 5.30526C44.1076 5.30526 45.6658 6.86346 45.6658 8.7856L45.6658 26.8834Z" fill="#E8F5E9"/>
<path d="M20.128 16.8911C19.9604 16.8911 19.8048 16.845 19.6666 16.7709V16.7728C19.6666 17.0365 19.5641 17.2842 19.3781 17.4697C19.1921 17.6556 18.9447 17.7581 18.6813 17.7581C18.5112 17.7581 18.3536 17.7109 18.2139 17.6348C18.1998 17.876 18.1034 18.1015 17.9313 18.2737C17.7454 18.4597 17.4979 18.5622 17.2343 18.5622C16.7107 18.5622 16.2855 18.1506 16.2548 17.6346C16.0928 17.7222 15.9096 17.7681 15.7207 17.756C15.2056 17.7222 14.8022 17.2771 14.8022 16.7425V12.3109L14.2975 13.1851C14.1053 13.5195 13.7456 13.7271 13.3582 13.7271C13.1694 13.7271 12.983 13.6776 12.8178 13.583C12.6122 13.4637 12.4651 13.2724 12.4039 13.0434C12.3424 12.8143 12.3742 12.5747 12.4931 12.3694C12.4933 12.3694 14.1442 9.51048 14.2449 9.33487C14.2569 9.30847 14.291 9.23188 14.32 9.16661C14.3477 9.1043 14.3715 9.04034 14.3943 8.97605C14.8922 7.57049 16.1249 6.69739 17.6117 6.69739C19.5424 6.69739 21.1131 8.4006 21.1131 10.4942L21.1132 15.9057C21.1132 16.169 21.0109 16.4165 20.8251 16.6026C20.6391 16.7886 20.3917 16.8911 20.128 16.8911L20.128 16.8911ZM17.6117 7.22093C16.3342 7.22093 15.316 7.94252 14.8878 9.15114C14.8604 9.22789 14.8319 9.30464 14.7986 9.37942C14.702 9.59606 14.702 9.59606 14.6748 9.62721L14.6712 9.6241C14.5364 9.87845 14.1359 10.572 12.9464 12.6314C12.8976 12.7159 12.8846 12.8139 12.9095 12.9077C12.9348 13.0015 12.9953 13.0806 13.0791 13.1289C13.3392 13.2783 13.6954 13.1819 13.8436 12.9236L14.8373 11.2033C14.8966 11.1008 15.0167 11.0505 15.1318 11.0817C15.2463 11.1123 15.3258 11.2161 15.3258 11.3345V16.7427C15.3258 16.9978 15.5183 17.2181 15.755 17.2336C15.8914 17.2409 16.0187 17.1951 16.1143 17.0997C16.2012 17.0127 16.2491 16.897 16.2491 16.7731V13.2362C16.2491 13.0915 16.3664 12.9743 16.511 12.9743C16.6556 12.9743 16.7729 13.0914 16.7729 13.2362L16.7727 17.5771C16.7727 17.8316 16.9799 18.0387 17.2344 18.0387C17.358 18.0387 17.4741 17.9909 17.5612 17.9039C17.6481 17.8169 17.696 17.7008 17.696 17.5771V13.2362C17.696 13.0915 17.8131 12.9743 17.9579 12.9743C18.1025 12.9743 18.2198 13.0914 18.2198 13.2362L18.2196 16.7325V16.7731C18.2196 17.0275 18.4268 17.2346 18.6814 17.2346C18.8049 17.2346 18.9207 17.1866 19.0083 17.0993C19.0952 17.0126 19.1431 16.8968 19.1431 16.773V13.236C19.1431 13.0913 19.2602 12.9741 19.405 12.9741C19.5496 12.9741 19.6669 13.0912 19.6669 13.236L19.6665 15.9058C19.6665 16.1605 19.8737 16.3676 20.128 16.3676C20.2518 16.3676 20.3676 16.3195 20.4545 16.2328C20.5418 16.1455 20.5895 16.0294 20.5895 15.9058L20.5896 10.4943C20.5896 8.68957 19.2538 7.22099 17.6117 7.22099L17.6117 7.22093Z" fill="#103E13"/>
<path d="M9.83834 20.6523L13.6387 18.3724C14.0969 18.0972 14.6864 18.2142 14.9803 18.6387C15.0876 18.7934 15.1423 18.9736 15.1509 19.1571C15.2925 19.0832 15.4467 19.043 15.6036 19.043C15.684 19.043 15.7647 19.053 15.8444 19.0728C16.0997 19.1366 16.3149 19.2962 16.4502 19.5218C16.5856 19.7478 16.6252 20.0127 16.5614 20.2677C16.5025 20.5037 16.359 20.7023 16.1594 20.8386C16.299 20.9209 16.4193 21.0332 16.505 21.1762C16.6404 21.4022 16.6799 21.6669 16.6163 21.9223C16.5525 22.1773 16.3929 22.3924 16.167 22.5281L16.1657 22.5289C16.3028 22.611 16.421 22.7222 16.5056 22.8631C16.6412 23.0891 16.6808 23.3539 16.617 23.6092C16.553 23.8644 16.3934 24.0796 16.1678 24.215L11.5275 26.9988C10.6615 27.5182 9.66028 27.6974 8.7088 27.5031C7.7488 27.307 6.95374 26.7552 6.47032 25.9493C5.70528 24.6742 5.81993 23.1678 6.76895 22.018C6.81241 21.9656 6.85521 21.9121 6.89408 21.8567C6.93524 21.7981 6.98329 21.7292 6.99969 21.7056C7.09792 21.5301 8.7008 18.6422 8.70063 18.6426C8.86249 18.3505 9.16588 18.1852 9.47877 18.1853C9.62472 18.1853 9.77281 18.2213 9.90942 18.297C10.0744 18.3892 10.213 18.5235 10.3099 18.6854C10.5091 19.0174 10.5162 19.433 10.3286 19.7693L9.83834 20.6523ZM9.86114 18.9546C9.8103 18.8698 9.74044 18.8022 9.655 18.7543C9.47838 18.6566 9.25601 18.7202 9.15877 18.8962C8.01182 20.9625 7.62084 21.6667 7.46996 21.9173L7.4734 21.9181C7.46077 21.9601 7.46077 21.9601 7.32269 22.1574C7.27579 22.2241 7.22479 22.2882 7.17281 22.3514C6.35676 23.3401 6.262 24.5843 6.91911 25.6799C7.32614 26.3585 7.99884 26.8238 8.81338 26.99C9.63678 27.1575 10.5046 27.0017 11.2579 26.5497L15.8986 23.7658C16.0045 23.7024 16.0793 23.6015 16.1091 23.482C16.139 23.3626 16.1205 23.2384 16.0568 23.1325C15.926 22.9144 15.6418 22.8427 15.4236 22.9741L13.1343 24.3475C13.0103 24.422 12.8493 24.382 12.775 24.2578C12.7006 24.1338 12.7407 23.973 12.8647 23.8985L15.1542 22.5251L15.8978 22.079C16.0037 22.0154 16.0786 21.9145 16.1085 21.7953C16.1383 21.6757 16.1198 21.5514 16.0562 21.4457C15.9251 21.2274 15.6409 21.1564 15.423 21.2872L12.39 23.1067C12.2657 23.1814 12.1051 23.141 12.0307 23.017C11.9562 22.8931 11.9965 22.7322 12.1204 22.6577L15.8428 20.4247C15.9488 20.361 16.0235 20.2603 16.0534 20.1408C16.0832 20.0214 16.0647 19.8973 16.0012 19.7913C15.9378 19.6856 15.8369 19.6108 15.7174 19.5809C15.5972 19.5511 15.4735 19.5696 15.3679 19.6329L14.6788 20.0463C14.6786 20.0463 14.6786 20.0465 14.6785 20.0465H14.6783L11.6454 21.866C11.5211 21.9408 11.3604 21.9004 11.2861 21.7763C11.2117 21.6523 11.252 21.4915 11.3758 21.417L14.4089 19.5975C14.5148 19.5339 14.5898 19.433 14.6196 19.3138C14.6524 19.1829 14.6275 19.0491 14.5497 18.9369C14.4149 18.7419 14.1266 18.6901 13.908 18.8215L9.27071 21.6035C9.16919 21.6641 9.03915 21.6494 8.95404 21.5672C8.86876 21.4849 8.84957 21.3555 8.90697 21.252L9.87126 19.5147C9.96801 19.341 9.96424 19.1265 9.86109 18.9546L9.86114 18.9546Z" fill="#103E13"/>
<path d="M27.998 25.9491C27.5147 26.7551 26.7199 27.3068 25.7597 27.5029C24.8081 27.6969 23.8072 27.518 22.941 26.9986L18.3003 24.2147C18.0745 24.0793 17.9148 23.8641 17.8508 23.6086C17.7873 23.3536 17.827 23.0887 17.9623 22.8631C18.0468 22.722 18.1652 22.6108 18.3024 22.5287L18.3011 22.5279C18.0753 22.3924 17.9156 22.1772 17.852 21.9221C17.788 21.6669 17.8277 21.4019 17.9631 21.1759C18.0504 21.0308 18.1699 20.9173 18.3064 20.8368C18.1083 20.7005 17.9656 20.5026 17.9069 20.2677C17.8429 20.0124 17.8826 19.7475 18.0181 19.5219C18.1534 19.296 18.3687 19.1365 18.6239 19.0727C18.7036 19.0527 18.7844 19.0428 18.8645 19.0428C19.0216 19.043 19.1757 19.0829 19.3174 19.157C19.3261 18.9735 19.3807 18.7932 19.488 18.6386C19.782 18.2144 20.371 18.0969 20.8299 18.3723L24.6301 20.6518L24.1403 19.7695C23.9523 19.4326 23.9592 19.0171 24.1585 18.6848C24.2556 18.5231 24.3943 18.3888 24.5601 18.2958C24.6964 18.2204 24.844 18.1846 24.9896 18.1846C25.3023 18.1848 25.606 18.3498 25.7677 18.6419C26.3312 19.6572 27.3945 21.5719 27.4693 21.7056C27.4852 21.7287 27.5332 21.7976 27.5744 21.8561C27.6136 21.9117 27.6559 21.9649 27.6997 22.0177C28.6486 23.1679 28.763 24.6742 27.998 25.9491L27.998 25.9491ZM27.2957 22.3514C27.2435 22.2883 27.1924 22.2238 27.1458 22.1574C27.0041 21.9564 27.0005 21.9511 26.9898 21.8985C26.8242 21.6244 26.4201 20.897 25.3094 18.8959C25.212 18.7203 24.9906 18.6562 24.8143 18.7536C24.7276 18.8021 24.6579 18.8698 24.607 18.9546C24.504 19.1263 24.5001 19.3408 24.5974 19.515L25.5613 21.2518C25.6189 21.3555 25.5997 21.4847 25.5146 21.567C25.4296 21.6495 25.2997 21.664 25.1977 21.6033L20.5604 18.8213C20.3418 18.6903 20.0537 18.7416 19.9185 18.9367C19.8408 19.0489 19.816 19.1827 19.8485 19.3134C19.8784 19.4328 19.9533 19.5335 20.0594 19.5971C20.0597 19.5973 20.0599 19.5976 20.0602 19.5978L23.0923 21.4168C23.2163 21.4913 23.2564 21.652 23.182 21.7761C23.1075 21.8999 22.947 21.9404 22.8227 21.8658L19.1002 19.6327C18.9946 19.5694 18.8703 19.5507 18.7509 19.5808C18.6312 19.6106 18.5305 19.6854 18.467 19.7915C18.4034 19.8973 18.385 20.0214 18.4146 20.1408C18.4444 20.2602 18.5194 20.361 18.6253 20.4247L19.3497 20.8591L22.3476 22.6578C22.4716 22.7322 22.5118 22.8929 22.4373 23.0171C22.3628 23.1409 22.2023 23.1812 22.078 23.1068L19.0453 21.2873C18.8272 21.1561 18.5431 21.2273 18.4119 21.4457C18.3483 21.5516 18.33 21.6758 18.3595 21.7952C18.3893 21.9145 18.4643 22.0152 18.5704 22.079L19.3139 22.5251L21.6031 23.8985C21.727 23.973 21.7672 24.1337 21.6928 24.2578C21.6183 24.3817 21.4578 24.4223 21.3335 24.3475L19.0443 22.9741C18.9387 22.9108 18.8149 22.8921 18.6948 22.9221C18.5754 22.952 18.4744 23.0267 18.411 23.1325C18.3475 23.2385 18.329 23.3628 18.3585 23.482C18.3883 23.6014 18.4633 23.7021 18.5694 23.7659L23.2101 26.5498C23.9632 27.0016 24.8316 27.158 25.6546 26.9901C26.4689 26.8238 27.1417 26.3585 27.5487 25.6799C28.2064 24.5841 28.1118 23.3398 27.296 22.3514L27.2957 22.3514Z" fill="#103E13"/>
</svg>
