<svg width="13" height="13" viewBox="0 0 13 13" fill="none" xmlns="http://www.w3.org/2000/svg">
<path fill-rule="evenodd" clip-rule="evenodd" d="M12.34 6.76603C12.34 7.16773 12.2991 7.56887 12.2188 7.95988C12.1405 8.34161 12.0245 8.71638 11.8725 9.07464C11.724 9.42656 11.5398 9.76569 11.3246 10.082C11.1126 10.3962 10.8684 10.6911 10.6001 10.9598C10.3312 11.2274 10.0354 11.471 9.72125 11.6839C9.40395 11.8976 9.06433 12.0815 8.7122 12.2307C8.35342 12.3819 7.97779 12.4977 7.59639 12.5759C7.20485 12.6565 6.80225 12.6976 6.39997 12.6976C5.9974 12.6976 5.59482 12.6565 5.20384 12.5759C4.82186 12.4977 4.44625 12.3819 4.08775 12.2307C3.73565 12.0815 3.3957 11.8976 3.0784 11.6839C2.76428 11.471 2.46844 11.2274 2.20015 10.9598C1.93157 10.6911 1.68734 10.3962 1.47503 10.082C1.26098 9.76569 1.0765 9.42654 0.927428 9.07464C0.775426 8.71638 0.659135 8.34159 0.58053 7.95988C0.501065 7.56887 0.460449 7.16773 0.460449 6.76603C0.460449 6.36403 0.501042 5.96203 0.580553 5.57188C0.659158 5.19015 0.775449 4.8148 0.927451 4.45712C1.07652 4.10494 1.261 3.76551 1.47506 3.44922C1.68737 3.1347 1.9316 2.84042 2.20017 2.57136C2.46846 2.30373 2.7643 2.06076 3.07842 1.84817C3.39572 1.63355 3.73567 1.44966 4.08777 1.3002C4.44627 1.14869 4.82186 1.03257 5.20386 0.954961C5.59484 0.87503 5.99742 0.834473 6.4 0.834473C6.80227 0.834473 7.20485 0.87503 7.59641 0.954961C7.97781 1.03259 8.35342 1.14872 8.71222 1.3002C9.06433 1.44963 9.40397 1.63355 9.72127 1.84817C10.0354 2.06076 10.3313 2.30373 10.6001 2.57136C10.8684 2.84042 11.1126 3.1347 11.3246 3.44922C11.5398 3.76551 11.724 4.10497 11.8725 4.45712C12.0245 4.8148 12.1405 5.19015 12.2188 5.57188C12.2991 5.96203 12.34 6.36403 12.34 6.76603ZM4.23564 2.18442C2.82108 2.85144 1.76532 4.15301 1.43612 5.72163C1.56985 5.72279 3.68369 5.74944 6.11918 5.10326C5.24123 3.54565 4.30323 2.27451 4.23564 2.18442ZM6.53945 5.88326C3.92761 6.66406 1.42133 6.60788 1.33143 6.60442C1.32996 6.65886 1.32736 6.71156 1.32736 6.76603C1.32736 8.06729 1.81898 9.2536 2.62704 10.1506C2.6253 10.148 4.01347 7.68877 6.7509 6.80484C6.81702 6.78283 6.88432 6.76312 6.95102 6.74402C6.82371 6.45615 6.68475 6.16767 6.53945 5.88326ZM9.74997 2.96439C8.85691 2.17804 7.68428 1.70105 6.39996 1.70105C5.9878 1.70105 5.58783 1.75087 5.20468 1.84297C5.28066 1.94493 6.23347 3.20711 7.10098 4.79771C9.015 4.08119 9.73748 2.98291 9.74997 2.96439ZM7.2968 7.58335C7.2855 7.58709 7.2742 7.59031 7.26316 7.59435C4.27024 8.63622 3.29286 10.7359 3.28229 10.7588C4.14345 11.4275 5.22357 11.831 6.39999 11.831C7.10246 11.831 7.77159 11.6882 8.38038 11.4296C8.30527 10.987 8.01059 9.4358 7.2968 7.58335ZM9.23456 10.9668C10.3735 10.1993 11.1825 8.98052 11.4081 7.56884C11.3037 7.53525 9.88453 7.08661 8.24722 7.34874C8.91258 9.17456 9.18292 10.6615 9.23456 10.9668ZM7.49143 5.55249C7.60916 5.79404 7.72317 6.03989 7.82844 6.28697C7.86587 6.37561 7.90242 6.46251 7.93808 6.54938C9.68066 6.33041 11.3974 6.69882 11.4708 6.71386C11.4592 5.51309 11.0291 4.41105 10.3173 3.54828C10.3078 3.56186 9.49418 4.73572 7.49143 5.55249Z" fill="white"/>
</svg>
