<svg width="12" height="10" viewBox="0 0 12 10" fill="none" xmlns="http://www.w3.org/2000/svg">
<path fill-rule="evenodd" clip-rule="evenodd" d="M5.47768 2.6897L5.50105 3.07507L5.11154 3.02788C3.69373 2.84699 2.45509 2.23355 1.40341 1.20327L0.889261 0.692069L0.756828 1.06957C0.476381 1.91109 0.655555 2.7998 1.23982 3.39752C1.55143 3.72783 1.48131 3.77502 0.943792 3.57841C0.756828 3.51549 0.593234 3.4683 0.577653 3.49189C0.523122 3.54695 0.710087 4.26263 0.8581 4.54576C1.06064 4.93899 1.47352 5.32436 1.92535 5.55244L2.30707 5.73333L1.85524 5.74119C1.41899 5.74119 1.40341 5.74906 1.45015 5.91422C1.60596 6.42542 2.22138 6.96808 2.90692 7.20402L3.38991 7.36918L2.96924 7.62085C2.34602 7.98262 1.61375 8.18711 0.88147 8.20284C0.530912 8.2107 0.242676 8.24216 0.242676 8.26575C0.242676 8.3444 1.19308 8.78482 1.74618 8.95784C3.40549 9.46905 5.3764 9.24884 6.85654 8.37586C7.90821 7.75455 8.95989 6.51979 9.45067 5.32436C9.71553 4.68733 9.9804 3.52335 9.9804 2.96496C9.9804 2.60319 10.0038 2.556 10.44 2.12344C10.6971 1.87177 10.9386 1.59651 10.9853 1.51786C11.0632 1.36843 11.0554 1.36843 10.6581 1.50213C9.99598 1.73807 9.9025 1.70661 10.2297 1.3527C10.4712 1.10103 10.7594 0.644881 10.7594 0.511181C10.7594 0.487587 10.6426 0.526911 10.5101 0.597693C10.3699 0.67634 10.0583 0.79431 9.8246 0.865092L9.40393 0.998791L9.02221 0.739257C8.81187 0.597693 8.51585 0.440399 8.36004 0.393211C7.96274 0.283106 7.35511 0.298835 6.99676 0.42467C6.02299 0.77858 5.40756 1.69088 5.47768 2.6897Z" fill="white"/>
</svg>
